<svg width="49" height="48" viewBox="0 0 49 48" fill="none" xmlns="http://www.w3.org/2000/svg">
<path d="M24.9351 0.0153776C26.2076 0.00128147 27.4532 0.234509 28.7065 0.406226C29.3293 0.492085 29.9252 0.69712 30.5377 0.826548C31.4886 1.02774 32.3946 1.36477 33.2878 1.72101C34.2822 2.11827 35.2689 2.54884 36.1916 3.105C36.6234 3.36514 37.0553 3.62272 37.4871 3.88285C38.3483 4.40441 39.1261 5.03874 39.9014 5.66922C41.4738 6.95198 42.8437 8.43335 44.0124 10.0954C44.5942 10.9233 45.108 11.7908 45.5912 12.6827C46.2947 13.9808 46.8342 15.3418 47.2788 16.7437C47.6684 17.9739 47.9273 19.231 48.1028 20.5099C48.2284 21.4287 48.2694 22.3514 48.3437 23.2728L48.3322 23.2792L48.3437 23.2869C48.3822 24.23 48.2335 25.1604 48.172 26.0971C48.1003 27.2043 47.8504 28.2782 47.6325 29.3572C47.507 29.9787 47.2712 30.5772 47.0802 31.1859C46.7727 32.1675 46.3421 33.1017 45.8987 34.0243C45.5399 34.774 45.1209 35.4993 44.6736 36.2002C43.1653 38.5594 41.3059 40.6047 39.0723 42.3013C37.2193 43.7097 35.2125 44.8553 33.0392 45.6793C32.0345 46.0599 31.0042 46.3738 29.9521 46.6327C29.0243 46.8608 28.0876 47.012 27.1521 47.1607C25.6694 47.3965 24.1611 47.3772 22.6695 47.2875C21.174 47.1978 19.685 46.9915 18.2279 46.6045C16.8965 46.2508 15.6009 45.8113 14.3297 45.2731C13.0175 44.7182 11.7796 44.03 10.6083 43.2458C8.5336 41.8567 6.69982 40.1869 5.14539 38.2173C4.2804 37.1216 3.51152 35.9683 2.83747 34.7458C2.26721 33.7104 1.77641 32.6365 1.38043 31.5293C0.889632 30.153 0.534665 28.7357 0.304 27.2838C0.16432 26.4098 0.147661 25.5269 0.0105434 24.6555C-0.00483423 24.5542 -0.012523 24.4415 0.0541134 24.3454C0.0541134 23.8725 0.0541134 23.3996 0.0541134 22.9268C-0.0471227 22.7487 0.0618022 22.5782 0.072054 22.4039C0.102809 21.8747 0.122031 21.3454 0.188668 20.8188C0.332192 19.6834 0.55645 18.5659 0.839655 17.4587C1.04213 16.6681 1.32277 15.9005 1.62135 15.1431C2.00579 14.1679 2.4479 13.2171 2.96689 12.3021C4.32397 9.90833 6.02064 7.79903 8.09406 5.98575C10.229 4.11736 12.6215 2.68212 15.2562 1.64284C16.0674 1.32248 16.9016 1.08028 17.741 0.841926C18.8661 0.521558 20.0092 0.340871 21.1663 0.199909C21.9198 0.107643 22.6759 0.0691994 23.4307 0C23.933 0.00512588 24.4354 0.00897029 24.939 0.0128147L24.9351 0.0153776ZM1.58803 23.3215C1.5765 24.3172 1.66877 25.3039 1.79948 26.2842C1.91865 27.18 2.02245 28.0885 2.25568 28.9587C2.68113 30.5426 3.20781 32.0957 4.01257 33.5425C4.55079 34.5113 5.10182 35.4711 5.74128 36.3771C6.59858 37.5919 7.63016 38.6543 8.71173 39.6666C9.24738 40.1677 9.79969 40.6585 10.3879 41.0955C11.5604 41.9681 12.7945 42.7447 14.1221 43.3675C15.3574 43.948 16.6248 44.4401 17.9332 44.8348C18.9981 45.1564 20.0925 45.3141 21.1894 45.4563C21.8429 45.5409 22.5003 45.6921 23.1526 45.6793C24.3008 45.6562 25.4516 45.6613 26.5959 45.5293C27.6198 45.4102 28.6437 45.2897 29.6497 45.0693C30.8607 44.8028 32.0178 44.353 33.157 43.8814C35.0549 43.0958 36.8015 42.0271 38.4124 40.7572C40.3076 39.2642 41.921 37.4997 43.2268 35.4672C44.566 33.3836 45.6142 31.1718 46.1409 28.7318C46.3447 27.7861 46.6163 26.8468 46.6714 25.8831C46.7368 24.7375 46.8393 23.588 46.7073 22.436C46.6112 21.5902 46.5945 20.7316 46.4433 19.8961C46.1845 18.4711 45.8116 17.0717 45.2144 15.7403C44.7326 14.6626 44.302 13.5682 43.6664 12.5584C42.7373 11.0834 41.6724 9.72379 40.4883 8.45129C40.0373 7.9669 39.5119 7.5658 39.0146 7.13266C37.7293 6.01394 36.3172 5.08744 34.8166 4.29421C32.9507 3.30619 30.976 2.62189 28.9026 2.21054C27.2456 1.8812 25.5746 1.72742 23.8907 1.68641C21.6379 1.63131 19.462 2.09649 17.3245 2.73978C15.3984 3.31901 13.5903 4.17247 11.8923 5.26172C9.53827 6.77257 7.51611 8.63455 5.84636 10.8822C4.85706 12.2137 4.04333 13.6438 3.37825 15.1636C2.24158 17.7663 1.68927 20.4946 1.58675 23.3215H1.58803Z" fill="#292122"/>
<path d="M1.58801 23.3215C1.69053 20.4946 2.24284 17.7663 3.37951 15.1636C4.04331 13.6438 4.85832 12.2137 5.84762 10.8822C7.51609 8.63455 9.53825 6.77257 11.8936 5.26172C13.5903 4.17247 15.3997 3.31901 17.3257 2.73979C19.4632 2.09649 21.6392 1.6326 23.892 1.68642C25.5771 1.72743 27.2469 1.8812 28.9038 2.21054C30.9772 2.62317 32.952 3.30748 34.8178 4.29421C36.3184 5.08872 37.7306 6.01394 39.0159 7.13267C39.5131 7.5658 40.0385 7.9669 40.4896 8.4513C41.6737 9.7238 42.7399 11.0834 43.6676 12.5584C44.3033 13.5669 44.7338 14.6626 45.2157 15.7403C45.8115 17.073 46.1857 18.4711 46.4446 19.8961C46.5958 20.7303 46.6125 21.5902 46.7086 22.436C46.8393 23.5867 46.7368 24.7375 46.6727 25.8831C46.6176 26.8468 46.3472 27.7861 46.1422 28.7318C45.6155 31.173 44.5672 33.3836 43.2281 35.4673C41.9223 37.4997 40.3076 39.2642 38.4136 40.7572C36.8028 42.0271 35.0562 43.0958 33.1583 43.8814C32.0191 44.353 30.8619 44.8028 29.6509 45.0693C28.6437 45.2897 27.6211 45.4102 26.5972 45.5294C25.4515 45.6626 24.3008 45.6575 23.1539 45.6793C22.5016 45.6921 21.8442 45.5409 21.1907 45.4563C20.0924 45.3141 18.9993 45.1564 17.9344 44.8348C16.6273 44.4401 15.3587 43.948 14.1234 43.3675C12.797 42.7447 11.5617 41.9669 10.3891 41.0955C9.80095 40.6585 9.24864 40.1677 8.71299 39.6666C7.63143 38.6543 6.60112 37.5919 5.74254 36.3771C5.10309 35.4711 4.55205 34.5126 4.01384 33.5425C3.20907 32.0957 2.68239 30.5426 2.25694 28.9587C2.02371 28.0885 1.91991 27.1813 1.80074 26.2842C1.67003 25.3026 1.57776 24.3159 1.58929 23.3215H1.58801ZM44.0828 18.4545C44.0149 17.5626 43.9483 16.6655 42.9744 16.2247C42.777 16.135 42.7142 16.0133 42.7194 15.8057C42.7399 14.8599 42.3529 14.0949 41.716 13.4067C40.9676 12.5994 40.0308 12.0407 39.194 11.3525C38.4969 10.7785 37.7165 10.2876 37.1321 9.59565C36.5017 8.84856 35.966 8.02201 35.3753 7.24159C34.6256 6.2523 33.7914 5.71024 32.4907 6.06136C32.2831 6.11774 32.1485 6.08058 32.0498 5.87555C31.9435 5.65385 31.8025 5.45266 31.5847 5.31811C30.9337 4.91829 30.2417 4.65943 29.4651 4.7863C28.4566 4.95161 27.4532 5.15152 26.4396 5.28222C25.4926 5.40525 24.5532 5.64232 23.587 5.50776C23.1795 5.45138 22.7874 5.28735 22.367 5.3117C21.9006 5.33861 21.4546 5.22328 21.0228 5.07719C20.4897 4.89778 19.9528 4.77092 19.3928 4.83115C18.5957 4.91572 17.8178 5.05797 17.4193 5.89477C17.336 6.06905 17.2117 6.08314 17.0246 6.03701C16.3813 5.87426 15.7585 5.94859 15.1716 6.2728C14.4399 6.67646 13.8683 7.26722 13.3417 7.89386C12.7945 8.54485 12.2947 9.23812 11.7821 9.91858C11.2465 10.6311 10.6185 11.2347 9.86759 11.7267C8.95262 12.3265 8.00561 12.8801 7.14959 13.5733C6.51911 14.0846 6.23206 14.7472 6.4371 15.4802C6.66392 16.2913 6.64598 16.1517 6.03856 16.5784C6.02959 16.5848 6.01934 16.5886 6.01165 16.5963C5.51187 17.032 5.03901 17.4498 5.02235 18.2199C5.00954 18.7979 5.04542 19.3681 5.08771 19.9397C5.12103 20.3946 5.11206 20.8687 5.30299 21.2903C5.60542 21.9593 5.69 22.6602 5.67718 23.3791C5.65027 24.8259 5.28249 26.224 5.04926 27.64C4.81732 29.0445 5.07233 29.9633 6.1808 30.7104C6.32945 30.8104 6.36277 30.9078 6.34099 31.0782C6.25128 31.7882 6.34996 32.4673 6.79591 33.0491C7.1073 33.4553 7.46355 33.827 7.88516 34.123C8.50411 34.5574 9.13972 34.9662 9.75226 35.407C10.707 36.0965 11.5207 36.9422 12.2857 37.8277C12.8201 38.4467 13.3455 39.0772 13.7645 39.7884C14.0836 40.3317 14.5667 40.6764 15.178 40.861C15.6201 40.9942 16.0648 40.9609 16.5094 40.9571C16.7196 40.9545 16.8747 40.9814 16.9618 41.2108C17.0387 41.412 17.2143 41.5581 17.3937 41.6708C18.5175 42.3731 19.7311 42.3295 20.9356 41.9938C21.552 41.8221 22.1543 41.5773 22.7951 41.5606C24.6045 41.5119 26.4139 41.4735 28.1952 41.9156C28.6578 42.0309 29.1435 42.0886 29.6215 42.0604C30.5236 42.0079 31.3835 41.8579 31.6744 40.7956C31.7167 40.6431 31.8294 40.688 31.9345 40.711C32.2139 40.7751 32.4907 40.8571 32.7726 40.8943C33.2736 40.9584 33.7119 40.7533 34.1322 40.5124C34.7614 40.1523 35.3266 39.7294 35.579 39.0041C35.6303 38.8567 35.7225 38.7196 35.8122 38.5889C36.1185 38.1404 36.4927 37.7431 36.822 37.3151C37.7011 36.1721 38.6699 35.1597 39.9757 34.4844C40.728 34.0948 41.4533 33.636 42.0671 33.0299C42.6566 32.4481 42.8603 31.7612 42.5464 30.9911C42.4144 30.6694 42.4938 30.5477 42.7552 30.3939C43.7548 29.807 44.0995 28.8702 44.0611 27.7695C44.0444 27.3043 43.9444 26.8404 43.8663 26.3791C43.7304 25.5717 43.5177 24.7708 43.4511 23.9571C43.3306 22.4898 43.5882 21.0494 43.9214 19.6244C44.0111 19.2374 44.0726 18.8517 44.079 18.4519L44.0828 18.4545Z" fill="#FFFDEB"/>
<path d="M44.0816 18.4545C44.0752 18.8543 44.0137 19.24 43.924 19.627C43.592 21.052 43.3332 22.4936 43.4536 23.9597C43.5203 24.7721 43.7317 25.573 43.8688 26.3816C43.947 26.843 44.047 27.3069 44.0636 27.772C44.1021 28.8715 43.7574 29.8083 42.7578 30.3965C42.4964 30.5503 42.4169 30.672 42.5489 30.9936C42.8629 31.7638 42.6591 32.4507 42.0697 33.0325C41.4558 33.6386 40.7292 34.0974 39.9783 34.4869C38.6725 35.1635 37.7037 36.1746 36.8246 37.3177C36.4953 37.7457 36.1211 38.143 35.8148 38.5915C35.7251 38.7222 35.6328 38.8593 35.5816 39.0067C35.3291 39.7333 34.764 40.1549 34.1348 40.515C33.7145 40.7559 33.2762 40.9609 32.7752 40.8968C32.492 40.861 32.2152 40.7777 31.9371 40.7136C31.832 40.6892 31.718 40.6444 31.6769 40.7982C31.3873 41.8592 30.5275 42.0104 29.624 42.063C29.1448 42.0912 28.6604 42.0335 28.1978 41.9182C26.4178 41.4748 24.6071 41.5132 22.7976 41.5632C22.1582 41.5811 21.5546 41.8246 20.9382 41.9963C19.7336 42.3334 18.5201 42.3757 17.3962 41.6734C17.2168 41.5619 17.0413 41.4146 16.9644 41.2134C16.876 40.984 16.7222 40.9571 16.512 40.9596C16.0661 40.9648 15.6214 40.9968 15.1806 40.8635C14.5693 40.6803 14.0862 40.3343 13.7671 39.7909C13.3481 39.0784 12.8227 38.448 12.2883 37.8303C11.5233 36.9448 10.7095 36.0977 9.75483 35.4096C9.14229 34.9675 8.5054 34.5587 7.88773 34.1256C7.46613 33.8295 7.10988 33.4579 6.79848 33.0517C6.35253 32.4699 6.25386 31.7907 6.34356 31.0808C6.36535 30.9103 6.33331 30.813 6.18338 30.713C5.0749 29.9659 4.82117 29.0471 5.05184 27.6426C5.28507 26.2266 5.65285 24.8272 5.67976 23.3817C5.69257 22.6628 5.608 21.9631 5.30557 21.2929C5.11463 20.87 5.1236 20.3972 5.09028 19.9422C5.04928 19.3707 5.01339 18.8017 5.02493 18.2225C5.04159 17.4511 5.51445 17.0346 6.01422 16.5989C6.02191 16.5925 6.03216 16.5874 6.04113 16.5809C6.64855 16.1542 6.66649 16.2952 6.43967 15.4827C6.23464 14.751 6.52168 14.0872 7.15217 13.5759C8.00691 12.8826 8.95391 12.329 9.87017 11.7293C10.6211 11.2372 11.2477 10.6336 11.7847 9.92115C12.2973 9.24069 12.797 8.54741 13.3442 7.89642C13.8709 7.26978 14.4437 6.67903 15.1742 6.27536C15.7611 5.95115 16.3839 5.87683 17.0272 6.03957C17.2143 6.08699 17.3399 6.07161 17.4219 5.89733C17.8204 5.06053 18.5983 4.91829 19.3953 4.83371C19.9553 4.77476 20.4923 4.90035 21.0254 5.07975C21.4572 5.22456 21.9019 5.34117 22.3696 5.31426C22.7899 5.28991 23.1808 5.45266 23.5896 5.51033C24.5558 5.64488 25.4951 5.40781 26.4421 5.28479C27.4558 5.15408 28.4592 4.95417 29.4677 4.78886C30.2443 4.66199 30.9363 4.91957 31.5872 5.32067C31.8051 5.45394 31.9461 5.65641 32.0524 5.87811C32.1511 6.08186 32.2856 6.11902 32.4932 6.06392C33.7939 5.7128 34.6282 6.25486 35.3778 7.24415C35.9699 8.02457 36.5042 8.85112 37.1347 9.59822C37.7191 10.2902 38.4982 10.781 39.1966 11.3551C40.0334 12.0433 40.9702 12.602 41.7185 13.4093C42.3554 14.0975 42.7424 14.8625 42.7219 15.8082C42.7181 16.0158 42.7796 16.1388 42.9769 16.2273C43.9509 16.6681 44.0175 17.5651 44.0854 18.457L44.0816 18.4545ZM9.15895 28.4961C10.7288 28.5794 12.1999 28.1667 13.6351 27.5939C14.7244 27.1595 15.7918 26.6879 16.7286 25.9536C17.3283 25.4833 17.2873 25.0668 16.7747 24.5158C16.5915 24.3185 16.3621 24.1788 16.1417 24.0314C15.9623 23.911 15.9764 23.8046 16.1519 23.6957C16.3147 23.5944 16.4851 23.5022 16.6338 23.383C17.5385 22.6666 17.3719 21.8388 16.5684 21.2058C16.2455 20.952 15.8623 20.7701 15.4817 20.6009C13.7133 19.8141 11.8629 19.2772 9.9919 18.812C9.26275 18.63 8.50924 18.5057 7.75061 18.7082C7.37386 18.8081 7.14576 19.0273 7.06118 19.4181C6.89844 20.1716 7.09963 20.8585 7.44819 21.5056C7.8275 22.213 8.34009 22.8294 8.8924 23.4099C9.01414 23.538 9.13204 23.6534 8.96673 23.843C8.63098 24.23 8.27602 24.594 7.90055 24.9425C7.33157 25.4718 6.87793 26.0882 6.70878 26.8686C6.64086 27.1825 6.6729 27.4965 6.90228 27.7387C7.33926 28.2 7.83775 28.5448 8.5195 28.4973C8.73222 28.4832 8.94623 28.4948 9.15895 28.4948V28.4961ZM18.9814 29.7929C18.8648 29.7929 18.7418 29.7698 18.6316 29.798C18.3881 29.8595 18.3535 29.7263 18.3727 29.5443C18.3907 29.3764 18.4304 29.2098 18.4586 29.042C18.5508 28.4807 18.4214 28.0219 17.9127 27.6887C17.4975 27.4171 17.0631 27.4606 16.6184 27.5196C15.9674 27.6067 15.3741 27.8861 14.7705 28.1219C13.2917 28.6998 11.8475 29.3546 10.4699 30.1492C9.80225 30.5336 9.15639 30.9437 8.70659 31.5934C8.48361 31.915 8.46055 32.2828 8.71428 32.5686C9.08719 32.9902 9.48701 33.3913 10.0227 33.6181C10.9043 33.9897 11.8142 34.2178 12.7778 34.2063C13.1648 34.2012 13.2186 34.2665 13.2225 34.6548C13.2263 35.0482 13.2315 35.4416 13.1635 35.8337C13.038 36.5693 13.1443 37.2741 13.4813 37.9443C13.9055 38.7901 15.1473 39.0451 15.8674 38.421C16.6966 37.7021 17.5013 36.9576 18.1216 36.0401C18.4906 35.4942 18.8712 34.9585 19.1185 34.337C19.4043 33.6168 19.7452 32.9197 20.0297 32.1995C20.2257 31.7061 20.3885 31.1948 20.391 30.6528C20.3923 30.2209 20.2629 30.0377 19.8656 29.8724C19.5786 29.7519 19.28 29.7852 18.9827 29.7942L18.9814 29.7929ZM40.2538 28.7511C40.3602 28.7511 40.4665 28.7549 40.5729 28.7511C41.584 28.7139 41.971 28.177 41.8723 27.2031C41.8326 26.8071 41.6942 26.4111 41.5084 26.0549C41.0932 25.2552 40.555 24.5453 39.8476 23.975C39.7002 23.8571 39.6413 23.7469 39.7925 23.5816C40.0719 23.2766 40.3089 22.9242 40.619 22.6551C41.1726 22.1746 41.5635 21.6017 41.8364 20.9277C42.1389 20.1819 42.0991 19.9435 41.4981 19.4361C41.0137 19.0273 40.4858 18.8005 39.8232 18.926C39.4081 19.0042 38.9762 19.0081 38.552 19.0106C37.9062 19.0145 37.2834 19.1208 36.6696 19.3169C35.4688 19.7013 34.3296 20.2293 33.2147 20.8098C32.7354 21.0597 32.2677 21.3442 31.8794 21.7325C31.4399 22.172 31.436 22.5513 31.8551 23.0126C32.0742 23.2536 32.3638 23.3971 32.6252 23.5791C32.811 23.7085 32.8508 23.7969 32.6304 23.9122C32.3715 24.0468 32.1588 24.2416 31.955 24.444C31.5898 24.8067 31.4001 25.2847 31.7641 25.8511C32.1421 26.4393 32.738 26.6892 33.3313 26.9506C34.7204 27.5619 36.18 27.9566 37.646 28.3243C38.5021 28.5383 39.3632 28.7395 40.2525 28.7536L40.2538 28.7511ZM29.3383 8.45258C29.3383 8.31418 29.3485 8.1745 29.337 8.03738C29.2857 7.44663 29.0538 7.01221 28.413 6.86484C27.9184 6.75079 27.4648 6.84434 27.0111 7.0199C26.0077 7.4069 25.1901 8.06814 24.4161 8.78705C24.2354 8.95492 24.1099 8.96261 23.9292 8.81267C23.5947 8.53331 23.2513 8.26677 22.9373 7.9605C22.4888 7.52352 21.9813 7.17496 21.4111 6.88406C20.3141 6.32406 19.6324 7.01221 19.2915 8.00279C19.0006 8.84984 19.2223 9.78531 19.3723 10.6593C19.6004 11.9869 20.0809 13.2402 20.7242 14.4306C21.1715 15.2585 21.6161 16.0812 22.3094 16.7347C22.6067 17.0154 22.8399 17.0333 23.168 16.8026C23.4025 16.6373 23.6229 16.449 23.801 16.2209C24.0906 15.8501 24.3832 15.8603 24.6788 16.2516C25.1466 16.8693 25.7181 17.0282 26.355 16.704C26.6882 16.5348 26.924 16.258 27.097 15.9325C27.6788 14.8369 28.1196 13.6861 28.4271 12.4841C28.5771 11.8972 28.7155 11.3039 28.9038 10.7285C29.146 9.9865 29.2908 9.22915 29.3383 8.45386V8.45258ZM35.8289 11.6037C35.8379 11.1129 35.8263 10.6247 35.7546 10.1377C35.6841 9.65844 35.5252 9.20865 35.2651 8.8037C34.8447 8.14887 33.8926 8.21935 33.1775 8.61148C32.5663 8.94723 32.1959 9.57771 31.7051 10.0647C31.2963 10.4709 30.9516 10.9348 30.6607 11.4333C30.1776 12.2611 29.7099 13.0979 29.4087 14.0142C29.1524 14.7907 28.841 15.5519 28.7501 16.3772C28.6924 16.9026 28.8064 17.1115 29.2998 17.305C29.6932 17.46 30.0918 17.4447 30.4954 17.3729C30.753 17.3268 30.8619 17.3972 30.7876 17.6779C30.7274 17.9034 30.6966 18.1367 30.6979 18.3737C30.703 19.1259 31.1567 19.5809 31.905 19.6129C32.4292 19.636 32.9161 19.5001 33.4044 19.3412C34.5936 18.9555 35.7174 18.4134 36.8156 17.8304C37.8741 17.2691 38.9852 16.7796 39.8732 15.9376C40.6049 15.2444 40.8561 14.628 39.8707 13.8219C39.0826 13.1774 38.1189 12.9826 37.1488 12.8314C36.8464 12.7839 36.5312 12.7955 36.2236 12.8096C35.9417 12.8224 35.8058 12.7391 35.8276 12.4341C35.8468 12.1586 35.8315 11.8805 35.8315 11.6037H35.8289ZM36.3633 34.1294C36.5927 34.1294 36.7516 34.1345 36.9117 34.1294C37.6191 34.1063 38.3073 34.0102 38.9467 33.6706C39.4029 33.4284 39.6297 33.0812 39.599 32.5673C39.5798 32.2572 39.5054 31.9573 39.3927 31.6677C39.2248 31.2371 38.8416 31.0039 38.52 30.713C37.5755 29.8583 36.5657 29.1112 35.3765 28.6127C34.5808 28.2782 33.7734 27.9758 32.9584 27.6964C32.383 27.4991 31.7833 27.3876 31.1746 27.3607C30.5979 27.335 30.284 27.6503 30.2519 28.2218C30.234 28.5448 30.2712 28.8613 30.3263 29.1752C30.3737 29.4418 30.2532 29.4713 30.0469 29.4341C29.8688 29.4021 29.6919 29.3559 29.5125 29.3354C28.7565 29.2444 28.117 29.6481 28.035 30.285C27.9812 30.6989 28.0107 31.1154 28.1567 31.5139C28.5489 32.5865 29.0346 33.6194 29.5933 34.6099C30.3032 35.8696 31.0016 37.1396 31.9807 38.2288C32.6419 38.9644 33.3685 39.0246 34.063 38.3403C34.3321 38.075 34.4603 37.738 34.5872 37.4048C34.9434 36.4732 35.1638 35.5121 35.1254 34.5061C35.1177 34.2934 35.2023 34.1999 35.4111 34.1704C35.7507 34.1217 36.0916 34.1409 36.3633 34.1307V34.1294ZM18.1062 18.7351C18.0946 18.5993 18.0908 18.4493 18.0677 18.3032C18.0331 18.0931 18.1267 18.0598 18.3035 18.1046C18.4996 18.1546 18.6957 18.2097 18.8943 18.2392C19.5081 18.3302 20.0655 18.0687 20.2795 17.5574C20.4487 17.155 20.4564 16.727 20.3218 16.3054C19.8477 14.8228 19.2608 13.3875 18.5162 12.0176C17.9319 10.9412 17.345 9.86989 16.4595 8.99464C15.993 8.53331 15.483 8.46924 14.9474 8.84343C14.4322 9.20352 14.1349 9.71739 13.9337 10.2812C13.6569 11.054 13.4327 11.8434 13.4314 12.6776C13.4314 12.8557 13.425 13.0569 13.17 13.0813C12.7573 13.121 12.3434 13.1786 11.9282 13.1274C11.2144 13.039 10.5212 13.1453 9.85991 13.3952C9.42165 13.5605 8.98851 13.8002 8.90137 14.332C8.80783 14.8984 8.9616 15.4315 9.33836 15.8492C9.9163 16.4887 10.5263 17.1012 11.2106 17.6318C12.1191 18.3378 13.1456 18.8363 14.2041 19.2605C15.0127 19.5834 15.8264 19.9051 16.6901 20.0717C17.4206 20.2126 17.7717 20.0768 18.0395 19.5078C18.1536 19.2643 18.078 19.0029 18.1087 18.7377L18.1062 18.7351ZM19.3069 39.2425C19.3018 39.7192 19.3184 40.201 19.7119 40.538C20.2655 41.0122 20.9228 40.9058 21.4969 40.6585C22.4734 40.2369 23.3884 39.6756 24.1509 38.9208C24.4251 38.6491 24.5891 38.7324 24.816 38.9067C25.2235 39.2194 25.5707 39.5949 25.9308 39.9588C26.4242 40.4586 27.0278 40.7572 27.6967 40.9353C27.9761 41.0096 28.2593 40.984 28.4899 40.8033C28.8833 40.497 29.187 40.119 29.3113 39.6205C29.4305 39.1438 29.328 38.6671 29.3088 38.1904C29.2691 37.2306 29.173 36.2771 28.8628 35.3647C28.554 34.4562 28.135 33.5912 27.6839 32.7454C27.3443 32.106 26.9752 31.4806 26.4383 30.9783C26.1461 30.7053 25.9296 30.6669 25.5695 30.8463C25.3285 30.9667 25.1197 31.1282 24.9736 31.3627C24.8723 31.5254 24.7519 31.6754 24.6481 31.8368C24.5443 31.9983 24.4507 32.0175 24.3431 31.842C24.2431 31.6779 24.1521 31.5062 24.033 31.3589C23.6742 30.9155 23.0732 30.5182 22.4504 30.8399C22.1095 31.0154 21.8391 31.2679 21.6456 31.5959C21.3803 32.0457 21.1586 32.5173 20.9574 33.0004C20.4974 34.1038 20.1411 35.2417 19.8374 36.3963C19.5914 37.3318 19.3249 38.2673 19.3069 39.2463V39.2425ZM17.9678 23.8148C17.9293 24.2749 18.0652 24.8311 18.2241 25.3885C18.6264 26.8007 19.453 27.895 20.6525 28.7242C21.9147 29.5968 23.3038 29.9339 24.8275 29.7839C26.7535 29.5943 28.3182 28.7306 29.4075 27.1505C30.2789 25.887 30.6492 24.4658 30.4109 22.8845C30.2045 21.512 29.6356 20.3485 28.6629 19.413C27.0777 17.8893 25.1568 17.3268 22.9873 17.7202C21.3637 18.0149 20.0873 18.8773 19.107 20.2049C18.3381 21.2455 17.9588 22.4001 17.9665 23.8136L17.9678 23.8148Z" fill="#292122"/>
<path d="M9.15893 28.496C8.94621 28.496 8.7322 28.4832 8.51948 28.4986C7.83773 28.546 7.33796 28.2013 6.90226 27.74C6.67288 27.4978 6.64084 27.1851 6.70876 26.8699C6.87791 26.0894 7.33155 25.4718 7.90053 24.9438C8.276 24.5953 8.63096 24.23 8.96671 23.8443C9.13074 23.6547 9.01412 23.5393 8.89238 23.4112C8.34007 22.8307 7.82748 22.2143 7.44817 21.5069C7.10089 20.8598 6.89842 20.1729 7.06116 19.4194C7.14574 19.0298 7.37256 18.8107 7.75059 18.7095C8.51051 18.507 9.26401 18.6313 9.99188 18.8133C11.8628 19.2797 13.7133 19.8154 15.4817 20.6022C15.8623 20.7713 16.2455 20.9533 16.5684 21.207C17.3719 21.8388 17.5385 22.6679 16.6337 23.3843C16.4838 23.5022 16.3147 23.5957 16.1519 23.6969C15.9763 23.8059 15.9623 23.9122 16.1417 24.0327C16.3634 24.1813 16.5915 24.3197 16.7747 24.5171C17.2873 25.0681 17.3283 25.4859 16.7286 25.9549C15.7918 26.6892 14.7244 27.1595 13.6351 27.5952C12.1999 28.168 10.7287 28.5806 9.15893 28.4973V28.496Z" fill="#FFFDEB"/>
<path d="M18.9813 29.7929C19.2786 29.7852 19.5772 29.7519 19.8643 29.8711C20.2615 30.0364 20.391 30.2209 20.3897 30.6515C20.3871 31.1936 20.2244 31.7049 20.0283 32.1982C19.7425 32.9184 19.403 33.6155 19.1172 34.3357C18.8699 34.9572 18.4893 35.4929 18.1202 36.0388C17.5 36.9563 16.6952 37.7009 15.8661 38.4198C15.1472 39.0438 13.9042 38.7888 13.48 37.9431C13.1443 37.2728 13.0366 36.568 13.1622 35.8325C13.2288 35.4403 13.2237 35.0469 13.2211 34.6535C13.2173 34.2652 13.1635 34.1999 12.7765 34.205C11.8128 34.2178 10.903 33.9884 10.0213 33.6168C9.48566 33.3913 9.08584 32.9902 8.71293 32.5673C8.46048 32.2815 8.48226 31.9137 8.70524 31.5921C9.15632 30.9424 9.80218 30.5336 10.4685 30.1479C11.8461 29.3534 13.2903 28.6985 14.7692 28.1206C15.3714 27.8848 15.9648 27.6067 16.617 27.5183C17.0617 27.4581 17.4961 27.4158 17.9113 27.6874C18.4201 28.0206 18.5495 28.4794 18.4572 29.0407C18.429 29.2086 18.3893 29.3739 18.3714 29.543C18.3521 29.725 18.3855 29.8583 18.6302 29.7968C18.7404 29.7686 18.8635 29.7916 18.9801 29.7916L18.9813 29.7929Z" fill="#FFFDEB"/>
<path d="M40.2537 28.7511C39.3631 28.7383 38.502 28.5358 37.6472 28.3218C36.1812 27.9553 34.7216 27.5593 33.3325 26.948C32.7405 26.6879 32.1433 26.4367 31.7653 25.8485C31.4013 25.2821 31.591 24.8054 31.9562 24.4415C32.16 24.239 32.374 24.0455 32.6316 23.9097C32.852 23.7943 32.8122 23.7059 32.6264 23.5765C32.3663 23.3945 32.0767 23.251 31.8563 23.0101C31.4372 22.55 31.4411 22.1694 31.8806 21.7299C32.2689 21.3416 32.7366 21.0571 33.2159 20.8072C34.3308 20.2267 35.47 19.7 36.6708 19.3143C37.2846 19.1183 37.9074 19.0119 38.5532 19.0081C38.9774 19.0055 39.4105 19.0029 39.8244 18.9235C40.487 18.7979 41.0149 19.0247 41.4993 19.4335C42.1003 19.941 42.1401 20.1793 41.8376 20.9251C41.5647 21.5992 41.1738 22.1733 40.6202 22.6526C40.3101 22.9217 40.0731 23.2741 39.7937 23.5791C39.6425 23.7444 39.7014 23.8546 39.8488 23.9725C40.5562 24.5414 41.0944 25.2527 41.5096 26.0523C41.6954 26.4085 41.8338 26.8045 41.8735 27.2005C41.9709 28.1744 41.5852 28.7113 40.5741 28.7485C40.4677 28.7524 40.3614 28.7485 40.255 28.7485L40.2537 28.7511Z" fill="#FFFDEB"/>
<path d="M29.3382 8.45258C29.2908 9.22915 29.146 9.98522 28.9038 10.7272C28.7155 11.3026 28.5771 11.8946 28.4271 12.4828C28.1196 13.6848 27.6787 14.8356 27.097 15.9312C26.924 16.2567 26.6882 16.5335 26.355 16.7027C25.7181 17.0269 25.1466 16.868 24.6788 16.2503C24.3824 15.8582 24.0898 15.8479 23.801 16.2196C23.6229 16.4477 23.4025 16.6361 23.168 16.8014C22.8399 17.032 22.608 17.0154 22.3094 16.7334C21.6161 16.0799 21.1714 15.2572 20.7242 14.4294C20.0809 13.2376 19.6004 11.9843 19.3723 10.658C19.2223 9.78403 18.9993 8.84856 19.2915 8.0015C19.6324 7.01093 20.3129 6.32278 21.4111 6.88278C21.98 7.17367 22.4888 7.52223 22.9373 7.95922C23.2513 8.26549 23.5947 8.53203 23.9292 8.81139C24.1086 8.96133 24.2342 8.95364 24.4161 8.78576C25.1914 8.06686 26.009 7.40562 27.0111 7.01862C27.4647 6.84434 27.9171 6.74951 28.413 6.86356C29.0538 7.01093 29.2857 7.44535 29.337 8.0361C29.3485 8.17322 29.3382 8.3129 29.3382 8.4513V8.45258Z" fill="#FFFDEB"/>
<path d="M35.8289 11.6037C35.8289 11.8805 35.8443 12.1586 35.825 12.4341C35.8032 12.7391 35.9404 12.8224 36.221 12.8096C36.5286 12.7955 36.8438 12.7839 37.1462 12.8314C38.1163 12.9826 39.08 13.1774 39.8681 13.8219C40.8535 14.628 40.6024 15.2444 39.8706 15.9376C38.9826 16.7796 37.8715 17.2678 36.8131 17.8304C35.7148 18.4134 34.591 18.9555 33.4018 19.3412C32.9148 19.4989 32.4279 19.6347 31.9025 19.6129C31.1541 19.5809 30.7004 19.1259 30.6953 18.3737C30.694 18.1367 30.7248 17.9047 30.785 17.6779C30.8593 17.3985 30.7504 17.328 30.4928 17.3729C30.0905 17.4447 29.6906 17.46 29.2972 17.305C28.8051 17.1115 28.6898 16.9013 28.7475 16.3772C28.8385 15.5519 29.1499 14.7907 29.4062 14.0142C29.7073 13.0992 30.175 12.2611 30.6581 11.4333C30.949 10.9348 31.2938 10.4722 31.7025 10.0647C32.1921 9.57771 32.5624 8.94723 33.175 8.61148C33.89 8.21935 34.8434 8.14887 35.2625 8.8037C35.5226 9.20865 35.6815 9.65844 35.752 10.1377C35.8238 10.6247 35.8353 11.1129 35.8263 11.6037H35.8289Z" fill="#FFFDEB"/>
<path d="M36.3632 34.1294C36.0915 34.1396 35.7507 34.1204 35.4111 34.1691C35.2022 34.1986 35.1176 34.2934 35.1253 34.5049C35.1638 35.5108 34.9421 36.4719 34.5871 37.4035C34.4602 37.7367 34.3321 38.0738 34.063 38.339C33.3684 39.0233 32.6418 38.9631 31.9806 38.2275C31.0015 37.1383 30.3031 35.8683 29.5932 34.6087C29.0345 33.6181 28.5488 32.5852 28.1567 31.5126C28.0106 31.1128 27.9811 30.6976 28.0349 30.2837C28.117 29.6468 28.7564 29.2431 29.5125 29.3341C29.6919 29.3559 29.8687 29.4008 30.0469 29.4328C30.2532 29.47 30.3749 29.4405 30.3262 29.1739C30.2698 28.8613 30.2339 28.5435 30.2519 28.2205C30.2839 27.649 30.5979 27.3338 31.1745 27.3594C31.7832 27.3863 32.383 27.4978 32.9584 27.6951C33.7734 27.9745 34.5794 28.2769 35.3765 28.6114C36.5657 29.1099 37.5755 29.857 38.5199 30.7117C38.8403 31.0026 39.2247 31.2358 39.3926 31.6664C39.5054 31.956 39.581 32.2559 39.5989 32.566C39.631 33.0786 39.4029 33.4259 38.9467 33.6693C38.3072 34.0089 37.6191 34.105 36.9117 34.1281C36.7515 34.1332 36.5926 34.1281 36.3632 34.1281V34.1294Z" fill="#FFFDEB"/>
<path d="M18.1048 18.7351C18.0753 19.0004 18.1509 19.2618 18.0356 19.5053C17.7678 20.0742 17.4166 20.2101 16.6862 20.0691C15.8225 19.9025 15.0088 19.5809 14.2002 19.2579C13.1417 18.8351 12.1152 18.3353 11.2066 17.6292C10.5236 17.0987 9.91236 16.4861 9.33441 15.8467C8.95766 15.4289 8.80388 14.8958 8.89743 14.3294C8.98457 13.7976 9.41643 13.5592 9.85597 13.3926C10.5172 13.1428 11.2105 13.0364 11.9243 13.1248C12.3395 13.1761 12.7534 13.1171 13.166 13.0787C13.421 13.0543 13.4274 12.8531 13.4274 12.675C13.43 11.8408 13.6542 11.0514 13.9298 10.2787C14.1322 9.71355 14.4283 9.19968 14.9434 8.84087C15.4791 8.46668 15.9891 8.53075 16.4555 8.99208C17.341 9.86732 17.9279 10.9386 18.5123 12.0151C19.2568 13.385 19.8425 14.8202 20.3179 16.3029C20.4524 16.7245 20.4448 17.1525 20.2756 17.5549C20.0616 18.0662 19.5042 18.3276 18.8903 18.2366C18.6904 18.2071 18.4944 18.152 18.2996 18.1021C18.1227 18.0572 18.0305 18.0905 18.0638 18.3007C18.0881 18.4468 18.0907 18.5967 18.1022 18.7325L18.1048 18.7351Z" fill="#FFFDEB"/>
<path d="M19.3068 39.2425C19.3247 38.2634 19.5913 37.3279 19.8373 36.3925C20.141 35.2392 20.4973 34.1012 20.9573 32.9966C21.1585 32.5135 21.3789 32.0419 21.6455 31.5921C21.839 31.264 22.1094 31.0116 22.4503 30.836C23.0731 30.5144 23.6753 30.9129 24.0329 31.355C24.152 31.5024 24.2443 31.6741 24.343 31.8381C24.4506 32.0137 24.5442 31.9945 24.648 31.833C24.7518 31.6715 24.8722 31.5216 24.9735 31.3589C25.1208 31.1243 25.3284 30.9629 25.5694 30.8424C25.9282 30.663 26.146 30.7015 26.4382 30.9744C26.9751 31.478 27.3442 32.1034 27.6838 32.7416C28.1336 33.5873 28.5539 34.4523 28.8627 35.3609C29.1728 36.2733 29.269 37.2267 29.3087 38.1865C29.3279 38.6632 29.4304 39.1399 29.3112 39.6167C29.1869 40.1151 28.8832 40.4932 28.4898 40.7994C28.2579 40.9801 27.976 41.0058 27.6966 40.9314C27.0277 40.7533 26.4241 40.4547 25.9307 39.955C25.5719 39.591 25.2234 39.2156 24.8158 38.9029C24.589 38.7286 24.425 38.6453 24.1508 38.917C23.3896 39.6718 22.4746 40.233 21.4968 40.6546C20.9227 40.902 20.2653 41.0083 19.7118 40.5342C19.3171 40.1972 19.3017 39.7153 19.3068 39.2386V39.2425Z" fill="#FFFDEB"/>
<path d="M17.9677 23.8161C17.96 22.4027 18.3393 21.2481 19.1082 20.2075C20.0885 18.8799 21.3649 18.0175 22.9885 17.7227C25.1567 17.328 27.079 17.8906 28.6641 19.4156C29.6368 20.351 30.2057 21.5146 30.4121 22.8871C30.6504 24.4684 30.2801 25.8883 29.4087 27.1531C28.3194 28.7331 26.7547 29.5968 24.8287 29.7865C23.3063 29.9364 21.9159 29.5994 20.6537 28.7267C19.4542 27.8963 18.6277 26.8032 18.2253 25.3911C18.0664 24.8336 17.9305 24.2787 17.969 23.8174L17.9677 23.8161ZM28.5347 21.3519C28.5347 20.5843 28.3386 20.2267 27.7338 19.9435C27.1892 19.6885 26.6484 19.7449 26.1589 20.0883C25.9448 20.2383 25.8795 20.2242 25.8436 19.9627C25.7475 19.2567 25.2016 18.7953 24.4494 18.7659C23.6805 18.7351 23.0808 19.1593 22.9244 19.8436C22.868 20.0922 22.742 20.14 22.5464 19.9871C21.8967 19.4758 21.0419 19.5232 20.496 20.1011C20.0014 20.6253 19.9296 21.3967 20.3359 22.0041C20.4858 22.2284 20.4025 22.3027 20.1834 22.3373C20.0257 22.3629 19.8694 22.3911 19.7361 22.4936C19.2722 22.8525 18.9672 23.2959 19.0313 23.9097C19.1005 24.5773 19.4388 25.0361 20.1193 25.1976C20.3384 25.2488 20.3461 25.368 20.2 25.5128C20.0591 25.6525 19.9476 25.8229 19.9168 26.0049C19.7413 27.0493 20.4563 27.9168 21.443 27.9207C21.8518 27.922 22.1543 27.7374 22.4323 27.4734C22.5707 27.3427 22.6745 27.3312 22.7027 27.5555C22.7501 27.9437 22.9795 28.2218 23.2615 28.4563C23.7215 28.8395 24.2469 28.8895 24.7928 28.6806C25.3054 28.4832 25.5848 28.0924 25.6578 27.5503C25.6706 27.4517 25.6142 27.3069 25.7475 27.2723C25.8731 27.2389 25.9205 27.385 25.9769 27.4632C26.4651 28.1475 27.5954 27.9783 28.0644 27.5247C28.6603 26.9493 28.7282 26.174 28.2182 25.5192C28.0708 25.3308 28.0759 25.2322 28.3233 25.163C28.6539 25.072 28.914 24.8836 29.0819 24.5722C29.5202 23.7572 29.2446 22.8525 28.4117 22.436C28.2374 22.3488 28.2143 22.2707 28.3245 22.1233C28.5065 21.8798 28.5514 21.6005 28.5347 21.3506V21.3519Z" fill="#FFFDEB"/>
<path d="M25.4719 26.4047C25.1272 26.0267 24.7402 25.8075 24.2328 25.805C23.815 25.8024 23.4562 25.919 23.1563 26.2022C23.0141 26.3368 22.9359 26.3932 22.8808 26.1343C22.7552 25.5474 22.4259 25.1322 21.8172 24.9874C21.6403 24.9451 21.6544 24.8772 21.7429 24.7452C22.1875 24.0865 22.1939 23.4317 21.6916 22.7986C21.5827 22.6615 21.6211 22.6282 21.7711 22.6039C22.4695 22.4911 22.9 22.0913 23.0346 21.3916C23.0743 21.1878 23.132 21.1263 23.3191 21.2801C23.9239 21.7786 24.5954 21.8388 25.2656 21.4505C25.4373 21.3519 25.5091 21.3698 25.5463 21.5633C25.6398 22.0579 25.9269 22.4116 26.3702 22.6359C26.5356 22.7192 26.5458 22.8089 26.4612 22.9639C26.128 23.5688 26.1281 24.1621 26.5509 24.7324C26.6253 24.8323 26.6842 24.9246 26.5086 25.0028C25.9192 25.2667 25.5642 25.714 25.4732 26.4047H25.4719ZM24.0508 25.2411C25.0465 25.2411 25.6513 24.6888 25.6475 23.7828C25.6449 22.9755 24.9709 22.3091 24.1507 22.3014C23.2934 22.295 22.5963 22.9601 22.6014 23.7931C22.6066 24.5748 23.287 25.3629 24.0495 25.2411H24.0508Z" fill="#FFFDEB"/>
<path d="M28.5347 21.3506C28.5513 21.5992 28.5052 21.8798 28.3245 22.1233C28.2156 22.2694 28.2374 22.3488 28.4116 22.436C29.2446 22.8512 29.5201 23.7572 29.0819 24.5722C28.914 24.8836 28.6538 25.072 28.3232 25.1629C28.0746 25.2309 28.0708 25.3308 28.2181 25.5192C28.7295 26.174 28.6615 26.9493 28.0644 27.5247C27.5941 27.9783 26.4651 28.1475 25.9769 27.4632C25.9205 27.385 25.8731 27.2389 25.7475 27.2722C25.6142 27.3068 25.6719 27.4517 25.6578 27.5503C25.5847 28.0937 25.3054 28.4845 24.7928 28.6806C24.2469 28.8907 23.7215 28.8395 23.2614 28.4563C22.9782 28.2218 22.7488 27.9425 22.7027 27.5555C22.6758 27.3312 22.5707 27.3427 22.4323 27.4734C22.1542 27.7374 21.8518 27.922 21.443 27.9207C20.4563 27.9168 19.7412 27.0493 19.9168 26.0049C19.9475 25.8229 20.0577 25.6512 20.2 25.5128C20.3461 25.3693 20.3384 25.2501 20.1193 25.1975C19.4388 25.0361 19.1005 24.5773 19.0313 23.9097C18.9672 23.2971 19.2735 22.8525 19.7361 22.4936C19.8694 22.3911 20.0257 22.3617 20.1833 22.3373C20.4025 22.3027 20.487 22.2284 20.3358 22.0041C19.9283 21.3967 20.0014 20.6253 20.496 20.1011C21.0419 19.5232 21.8954 19.4771 22.5464 19.9871C22.7411 20.14 22.8672 20.0922 22.9244 19.8436C23.0794 19.1605 23.6805 18.7364 24.4493 18.7658C25.2003 18.7953 25.7475 19.2567 25.8436 19.9627C25.8795 20.2242 25.9448 20.2383 26.1588 20.0883C26.6483 19.7449 27.1891 19.6885 27.7337 19.9435C28.3386 20.2267 28.5334 20.5843 28.5347 21.3519V21.3506ZM25.472 26.4047C25.5629 25.714 25.9179 25.268 26.5074 25.0028C26.6842 24.9233 26.624 24.8323 26.5497 24.7324C26.1268 24.1621 26.1268 23.5688 26.46 22.9639C26.5458 22.8089 26.5356 22.7192 26.369 22.6359C25.9243 22.4116 25.6385 22.0579 25.545 21.5633C25.5078 21.3698 25.4361 21.3519 25.2644 21.4505C24.5941 21.8388 23.9214 21.7786 23.3178 21.2801C23.1307 21.125 23.0718 21.1865 23.0333 21.3916C22.8988 22.0913 22.4695 22.4924 21.7698 22.6039C21.6186 22.6282 21.5814 22.6615 21.6903 22.7986C22.1927 23.4317 22.1863 24.0878 21.7416 24.7452C21.6532 24.8772 21.6404 24.9451 21.8159 24.9874C22.4246 25.1322 22.754 25.5474 22.8795 26.1343C22.9346 26.3944 23.0128 26.3368 23.1551 26.2022C23.4549 25.919 23.8137 25.8024 24.2315 25.805C24.739 25.8075 25.126 26.0254 25.4707 26.4047H25.472Z" fill="#C2B598"/>
<path d="M24.0509 25.2411C23.2871 25.3629 22.6079 24.5748 22.6028 23.7931C22.5977 22.9601 23.2935 22.295 24.1521 22.3014C24.9723 22.3078 25.6463 22.9755 25.6489 23.7828C25.6527 24.6875 25.0479 25.2398 24.0522 25.2411H24.0509Z" fill="#292122"/>
</svg>
