<svg width="549" height="182" viewBox="0 0 549 182" fill="none" xmlns="http://www.w3.org/2000/svg">
<path d="M462.762 137.241C455.606 137.241 449.473 135.878 444.361 133.152C439.25 130.426 435.416 126.677 432.861 121.907C430.305 117.136 429.027 111.684 429.027 105.55C429.027 98.0535 430.731 92.005 434.138 87.4047C437.546 82.6341 441.891 78.8006 447.173 75.9041C452.625 73.0077 458.332 70.6224 464.296 68.7482C470.429 66.7036 476.137 64.8295 481.419 63.1256C486.871 61.2515 491.301 59.1217 494.708 56.7364C498.286 54.3511 500.075 51.1991 500.075 47.2803V29.9016C500.075 23.768 499.053 18.9121 497.009 15.3342C495.134 11.5858 492.494 8.94493 489.086 7.41151C485.849 5.87809 481.93 5.11138 477.33 5.11138C473.411 5.11138 469.237 5.70771 464.807 6.90037C460.377 7.92265 456.884 10.0524 454.328 13.2896C458.077 14.3119 461.144 16.3564 463.529 19.4233C466.085 22.3197 467.363 25.9829 467.363 30.4128C467.363 35.1834 465.744 38.9317 462.507 41.6578C459.44 44.3839 455.521 45.7469 450.751 45.7469C445.469 45.7469 441.55 44.1283 438.994 40.8911C436.439 37.4835 435.161 33.5648 435.161 29.1349C435.161 24.5347 436.268 20.7863 438.483 17.8899C440.869 14.9934 443.935 12.2673 447.684 9.71164C451.773 6.98557 456.969 4.68544 463.273 2.81126C469.748 0.937086 476.904 0 484.741 0C492.068 0 498.372 0.851899 503.653 2.55569C509.106 4.08911 513.621 6.64481 517.199 10.2228C521.458 14.1415 524.269 19.0825 525.632 25.0458C526.995 30.8387 527.677 37.9095 527.677 46.2581V116.795C527.677 121.055 528.188 124.122 529.21 125.996C530.403 127.7 532.277 128.551 534.833 128.551C536.537 128.551 538.155 128.125 539.689 127.274C541.393 126.422 543.352 125.144 545.567 123.44L548.122 127.785C544.545 130.681 540.881 132.981 537.133 134.685C533.555 136.389 528.955 137.241 523.332 137.241C517.88 137.241 513.45 136.389 510.043 134.685C506.635 132.981 504.079 130.511 502.376 127.274C500.842 124.036 500.075 120.032 500.075 115.262C495.646 122.418 490.364 127.87 484.23 131.618C478.096 135.367 470.94 137.241 462.762 137.241ZM475.03 124.973C479.8 124.973 484.23 123.61 488.319 120.884C492.579 118.158 496.497 114.069 500.075 108.617V57.7587C498.201 60.4848 495.475 62.8701 491.897 64.9146C488.319 66.7888 484.486 68.7482 480.397 70.7927C476.307 72.8373 472.389 75.2226 468.64 77.9487C465.062 80.5044 462.081 83.8268 459.695 87.9159C457.31 92.005 456.117 97.2016 456.117 103.506C456.117 110.15 457.821 115.432 461.229 119.351C464.636 123.099 469.237 124.973 475.03 124.973Z" fill="#292122"/>
<path d="M321.199 0.766715V157.431C321.199 164.927 323.329 169.954 327.588 172.509C331.848 175.065 337.726 176.343 345.223 176.343V181.71C341.304 181.54 335.852 181.284 328.866 180.943C321.88 180.773 314.384 180.688 306.376 180.688C300.753 180.688 295.216 180.773 289.764 180.943C284.312 181.284 280.137 181.54 277.241 181.71V176.343C283.204 176.343 287.379 175.15 289.764 172.765C292.32 170.55 293.597 166.291 293.597 159.986V31.435C293.597 23.768 292.32 18.1454 289.764 14.5675C287.208 10.8191 282.352 8.94493 275.196 8.94493V3.57797C280.649 4.08912 285.93 4.34468 291.042 4.34468C296.664 4.34468 302.031 4.08912 307.143 3.57797C312.254 2.89645 316.939 1.95937 321.199 0.766715ZM361.834 0C370.694 0 378.617 2.4705 385.602 7.41151C392.758 12.1821 398.381 19.2529 402.47 28.6238C406.559 37.9947 408.604 49.6657 408.604 63.6368C408.604 73.8596 407.411 83.5712 405.026 92.7717C402.64 101.802 398.977 109.81 394.036 116.795C389.266 123.61 383.217 129.063 375.891 133.152C368.565 137.07 359.875 139.03 349.823 139.03C342.326 139.03 335.681 137.411 329.888 134.174C324.266 130.937 320.262 126.848 317.877 121.907L320.432 118.329C322.647 122.588 325.714 126.081 329.633 128.807C333.722 131.533 338.748 132.896 344.711 132.896C353.571 132.896 360.471 130.085 365.412 124.462C370.524 118.669 374.102 110.917 376.146 101.205C378.191 91.3235 379.213 80.1636 379.213 67.7259C379.213 53.7548 378.191 42.5097 376.146 33.9907C374.102 25.3014 371.035 18.9973 366.946 15.0786C362.857 10.9895 357.916 8.94493 352.123 8.94493C344.456 8.94493 337.47 12.0118 331.166 18.1454C325.033 24.2791 321.284 33.4796 319.921 45.7469L317.365 40.38C319.58 27.6015 324.692 17.7195 332.7 10.7339C340.878 3.57797 350.589 0 361.834 0Z" fill="#292122"/>
<path d="M171.202 0.766715V157.431C171.202 164.927 173.331 169.954 177.591 172.509C181.85 175.065 187.728 176.343 195.225 176.343V181.71C191.306 181.54 185.854 181.284 178.869 180.943C171.883 180.773 164.386 180.688 156.379 180.688C150.756 180.688 145.219 180.773 139.767 180.943C134.314 181.284 130.14 181.54 127.244 181.71V176.343C133.207 176.343 137.381 175.15 139.767 172.765C142.322 170.55 143.6 166.291 143.6 159.986V31.435C143.6 23.768 142.322 18.1454 139.767 14.5675C137.211 10.8191 132.355 8.94493 125.199 8.94493V3.57797C130.651 4.08912 135.933 4.34468 141.044 4.34468C146.667 4.34468 152.034 4.08912 157.145 3.57797C162.257 2.89645 166.942 1.95937 171.202 0.766715ZM211.837 0C220.697 0 228.62 2.4705 235.605 7.41151C242.761 12.1821 248.384 19.2529 252.473 28.6238C256.562 37.9947 258.606 49.6657 258.606 63.6368C258.606 73.8596 257.414 83.5712 255.028 92.7717C252.643 101.802 248.98 109.81 244.039 116.795C239.268 123.61 233.22 129.063 225.893 133.152C218.567 137.07 209.878 139.03 199.825 139.03C192.329 139.03 185.684 137.411 179.891 134.174C174.268 130.937 170.265 126.848 167.879 121.907L170.435 118.329C172.65 122.588 175.717 126.081 179.635 128.807C183.724 131.533 188.751 132.896 194.714 132.896C203.574 132.896 210.474 130.085 215.415 124.462C220.527 118.669 224.104 110.917 226.149 101.205C228.194 91.3235 229.216 80.1636 229.216 67.7259C229.216 53.7548 228.194 42.5097 226.149 33.9907C224.104 25.3014 221.038 18.9973 216.949 15.0786C212.859 10.9895 207.918 8.94493 202.126 8.94493C194.458 8.94493 187.473 12.0118 181.169 18.1454C175.035 24.2791 171.287 33.4796 169.924 45.7469L167.368 40.38C169.583 27.6015 174.694 17.7195 182.702 10.7339C190.88 3.57797 200.592 0 211.837 0Z" fill="#292122"/>
<path d="M33.7352 137.241C26.5792 137.241 20.4456 135.878 15.3342 133.152C10.2228 130.426 6.38924 126.677 3.83354 121.907C1.27785 117.136 0 111.684 0 105.55C0 98.0535 1.7038 92.0051 5.11139 87.4048C8.51898 82.6342 12.8637 78.8006 18.1454 75.9042C23.5976 73.0077 29.3053 70.6224 35.2686 68.7482C41.4022 66.7037 47.11 64.8295 52.3917 63.1257C57.8439 61.2515 62.2738 59.1218 65.6814 56.7365C69.2593 54.3512 71.0483 51.1991 71.0483 47.2804V29.9017C71.0483 23.768 70.026 18.9122 67.9815 15.3342C66.1073 11.5859 63.4664 8.94499 60.0588 7.41157C56.8216 5.87815 52.9029 5.11144 48.3026 5.11144C44.3839 5.11144 40.2096 5.70777 35.7797 6.90044C31.3499 7.92272 27.8571 10.0525 25.3014 13.2897C29.0497 14.312 32.1166 16.3565 34.5019 19.4233C37.0576 22.3198 38.3354 25.983 38.3354 30.4128C38.3354 35.1835 36.7168 38.9318 33.4796 41.6579C30.4128 44.384 26.494 45.747 21.7234 45.747C16.4416 45.747 12.5229 44.1284 9.96721 40.8912C7.41151 37.4836 6.13367 33.5648 6.13367 29.135C6.13367 24.5347 7.24113 20.7864 9.45607 17.8899C11.8414 14.9935 14.9082 12.2674 18.6566 9.7117C22.7457 6.98563 27.9423 4.6855 34.2463 2.81132C40.7207 0.937147 47.8767 6.10352e-05 55.7141 6.10352e-05C63.0405 6.10352e-05 69.3445 0.85196 74.6263 2.55575C80.0784 4.08917 84.5935 6.64487 88.1715 10.2228C92.431 14.1416 95.2422 19.0826 96.6052 25.0459C97.9683 30.8388 98.6498 37.9095 98.6498 46.2581V116.795C98.6498 121.055 99.1609 124.122 100.183 125.996C101.376 127.7 103.25 128.551 105.806 128.551C107.51 128.551 109.128 128.126 110.662 127.274C112.365 126.422 114.325 125.144 116.54 123.44L119.095 127.785C115.517 130.681 111.854 132.981 108.106 134.685C104.528 136.389 99.9277 137.241 94.3051 137.241C88.853 137.241 84.4231 136.389 81.0155 134.685C77.6079 132.981 75.0522 130.511 73.3484 127.274C71.815 124.036 71.0483 120.033 71.0483 115.262C66.6184 122.418 61.3367 127.87 55.203 131.618C49.0693 135.367 41.9134 137.241 33.7352 137.241ZM46.0025 124.974C50.7731 124.974 55.203 123.61 59.2921 120.884C63.5516 118.158 67.4703 114.069 71.0483 108.617V57.7588C69.1741 60.4848 66.4481 62.8701 62.8701 64.9147C59.2921 66.7889 55.4586 68.7482 51.3695 70.7928C47.2803 72.8373 43.3616 75.2227 39.6133 77.9487C36.0353 80.5044 33.0536 83.8268 30.6683 87.9159C28.283 92.0051 27.0904 97.2016 27.0904 103.506C27.0904 110.15 28.7942 115.432 32.2017 119.351C35.6093 123.099 40.2096 124.974 46.0025 124.974Z" fill="#292122"/>
</svg>
