<svg width="37" height="37" viewBox="0 0 37 37" fill="none" xmlns="http://www.w3.org/2000/svg">
<path d="M19.0817 0.0117678C20.0555 0.00098065 21.0087 0.179459 21.9677 0.310866C22.4443 0.376569 22.9003 0.533473 23.3691 0.632519C24.0967 0.786481 24.7901 1.04439 25.4736 1.31701C26.2345 1.62101 26.9896 1.95051 27.6957 2.37611C28.0262 2.57518 28.3567 2.7723 28.6871 2.97137C29.3461 3.37049 29.9414 3.85591 30.5347 4.33839C31.738 5.32002 32.7863 6.45365 33.6806 7.72555C34.1258 8.35905 34.5191 9.02295 34.8888 9.70548C35.4272 10.6989 35.84 11.7403 36.1803 12.8132C36.4784 13.7546 36.6765 14.7166 36.8108 15.6953C36.907 16.3984 36.9383 17.1045 36.9952 17.8096L36.9864 17.8145L36.9952 17.8204C37.0246 18.5421 36.9109 19.2541 36.8638 19.9709C36.8089 20.8182 36.6177 21.64 36.4509 22.4657C36.3548 22.9413 36.1744 23.3993 36.0283 23.8651C35.7929 24.6163 35.4634 25.3311 35.1241 26.0372C34.8495 26.6109 34.5289 27.1659 34.1866 27.7024C33.0324 29.5077 31.6095 31.0728 29.9002 32.3712C28.4822 33.449 26.9465 34.3257 25.2833 34.9562C24.5145 35.2475 23.726 35.4877 22.9209 35.6858C22.2109 35.8604 21.4941 35.9761 20.7782 36.0899C19.6436 36.2703 18.4894 36.2556 17.3479 36.1869C16.2035 36.1183 15.064 35.9604 13.949 35.6642C12.9301 35.3936 11.9386 35.0572 10.9658 34.6454C9.96166 34.2207 9.01435 33.6941 8.11804 33.094C6.53037 32.0309 5.12706 30.7532 3.93753 29.2459C3.27559 28.4074 2.6872 27.5249 2.17138 26.5893C1.73499 25.797 1.3594 24.9752 1.05638 24.1279C0.680794 23.0747 0.409154 21.9901 0.232637 20.879C0.125746 20.2102 0.112998 19.5345 0.00806838 18.8677C-0.00369941 18.7902 -0.0095833 18.7039 0.0414104 18.6304C0.0414104 18.2685 0.0414104 17.9067 0.0414104 17.5448C-0.0360608 17.4085 0.0472943 17.2781 0.0551395 17.1447C0.0786751 16.7397 0.0933849 16.3347 0.144379 15.9316C0.254211 15.0628 0.425825 14.2076 0.642548 13.3604C0.797491 12.7553 1.01225 12.1679 1.24074 11.5883C1.53494 10.8421 1.87326 10.1144 2.27043 9.41423C3.30893 7.58238 4.60731 5.96823 6.194 4.58061C7.82776 3.15083 9.65864 2.0525 11.6749 1.25719C12.2956 1.01203 12.934 0.826687 13.5763 0.644287C14.4373 0.399124 15.3121 0.260853 16.1976 0.152981C16.7742 0.0823745 17.3528 0.0529551 17.9304 0C18.3148 0.0039226 18.6992 0.00686454 19.0846 0.00980649L19.0817 0.0117678ZM1.21525 17.8468C1.20642 18.6088 1.27703 19.3639 1.37705 20.1141C1.46825 20.7996 1.54769 21.4949 1.72617 22.1607C2.05174 23.3728 2.45479 24.5613 3.07064 25.6685C3.48251 26.4099 3.90419 27.1444 4.39353 27.8377C5.04959 28.7673 5.83901 29.5803 6.66668 30.355C7.07659 30.7384 7.49925 31.114 7.94936 31.4484C8.84666 32.1163 9.79102 32.7105 10.807 33.1871C11.7523 33.6314 12.7222 34.0079 13.7234 34.31C14.5383 34.5561 15.3758 34.6767 16.2153 34.7856C16.7154 34.8503 17.2185 34.966 17.7176 34.9562C18.5963 34.9386 19.4769 34.9425 20.3526 34.8415C21.1362 34.7503 21.9197 34.6581 22.6895 34.4894C23.6162 34.2855 24.5017 33.9412 25.3735 33.5804C26.8259 32.9792 28.1625 32.1614 29.3952 31.1895C30.8456 30.0471 32.0802 28.6967 33.0795 27.1414C34.1043 25.5469 34.9064 23.8543 35.3095 21.9871C35.4654 21.2634 35.6733 20.5446 35.7155 19.8072C35.7655 18.9305 35.8439 18.0508 35.7429 17.1692C35.6694 16.522 35.6566 15.8649 35.5409 15.2256C35.3428 14.1351 35.0574 13.0642 34.6005 12.0453C34.2317 11.2206 33.9022 10.3831 33.4158 9.61036C32.7049 8.48164 31.8899 7.44117 30.9838 6.46738C30.6386 6.0967 30.2366 5.78975 29.8561 5.45829C28.8725 4.60219 27.7918 3.89318 26.6435 3.28616C25.2157 2.53008 23.7045 2.00641 22.1178 1.69162C20.8498 1.43959 19.571 1.32192 18.2825 1.29053C16.5585 1.24837 14.8933 1.60434 13.2576 2.09663C11.7837 2.53988 10.4 3.19299 9.10065 4.02655C7.29919 5.18273 5.75173 6.60761 4.47394 8.32767C3.71688 9.34657 3.09417 10.441 2.58521 11.604C1.71538 13.5957 1.29272 15.6835 1.21427 17.8468H1.21525Z" fill="#292122"/>
<path d="M1.21521 17.8468C1.29366 15.6835 1.71632 13.5957 2.58616 11.604C3.09413 10.441 3.71783 9.34657 4.47489 8.32768C5.75169 6.60762 7.29916 5.18274 9.10159 4.02655C10.4 3.193 11.7846 2.53989 13.2586 2.09663C14.8943 1.60435 16.5594 1.24935 18.2834 1.29054C19.573 1.32192 20.8507 1.4396 22.1187 1.69163C23.7054 2.0074 25.2166 2.53106 26.6444 3.28616C27.7928 3.89416 28.8734 4.60219 29.857 5.4583C30.2375 5.78976 30.6396 6.0967 30.9848 6.46739C31.8909 7.44117 32.7068 8.48164 33.4168 9.61037C33.9032 10.3821 34.2327 11.2206 34.6014 12.0453C35.0574 13.0652 35.3438 14.1351 35.5419 15.2256C35.6576 15.864 35.6703 16.522 35.7439 17.1692C35.8439 18.0498 35.7654 18.9305 35.7164 19.8072C35.6742 20.5446 35.4673 21.2634 35.3104 21.9871C34.9074 23.8553 34.1052 25.5469 33.0804 27.1414C32.0811 28.6967 30.8455 30.0471 29.3961 31.1896C28.1634 32.1614 26.8268 32.9792 25.3745 33.5804C24.5027 33.9413 23.6172 34.2855 22.6904 34.4894C21.9197 34.6581 21.1371 34.7503 20.3536 34.8415C19.4769 34.9435 18.5962 34.9396 17.7186 34.9562C17.2194 34.966 16.7163 34.8503 16.2162 34.7856C15.3758 34.6767 14.5393 34.5561 13.7244 34.31C12.7241 34.0079 11.7533 33.6314 10.8079 33.1871C9.79295 32.7105 8.8476 32.1153 7.95031 31.4484C7.50019 31.114 7.07753 30.7385 6.66762 30.355C5.83995 29.5803 5.05151 28.7673 4.39447 27.8377C3.90513 27.1444 3.48345 26.4109 3.07158 25.6685C2.45573 24.5613 2.05268 23.3728 1.72711 22.1607C1.54863 21.4949 1.4692 20.8006 1.378 20.1141C1.27797 19.3629 1.20736 18.6078 1.21619 17.8468H1.21521ZM33.7345 14.1223C33.6825 13.4398 33.6315 12.7533 32.8863 12.416C32.7352 12.3474 32.6872 12.2542 32.6911 12.0953C32.7068 11.3716 32.4106 10.7862 31.9233 10.2596C31.3506 9.64175 30.6337 9.21419 29.9933 8.68758C29.4599 8.24825 28.8626 7.87266 28.4155 7.34311C27.933 6.77139 27.5231 6.13887 27.071 5.54166C26.4973 4.78459 25.8589 4.36978 24.8636 4.63848C24.7047 4.68163 24.6017 4.65319 24.5262 4.49628C24.4448 4.32663 24.337 4.17267 24.1702 4.0697C23.6721 3.76374 23.1425 3.56565 22.5483 3.66273C21.7765 3.78924 21.0086 3.94222 20.2329 4.04224C19.5082 4.13638 18.7894 4.3178 18.05 4.21484C17.7382 4.17169 17.4381 4.04617 17.1164 4.0648C16.7595 4.08539 16.4182 3.99713 16.0877 3.88534C15.6798 3.74805 15.2689 3.65096 14.8403 3.69705C14.2304 3.76178 13.6351 3.87063 13.3301 4.51099C13.2664 4.64436 13.1713 4.65515 13.0281 4.61984C12.5358 4.4953 12.0592 4.55218 11.6101 4.80028C11.0501 5.10919 10.6128 5.56127 10.2097 6.04081C9.79099 6.53898 9.40853 7.06951 9.01627 7.59023C8.60636 8.13547 8.12584 8.59736 7.55118 8.97393C6.851 9.43287 6.1263 9.85651 5.47123 10.387C4.98875 10.7783 4.76908 11.2853 4.92599 11.8462C5.09956 12.467 5.08583 12.3601 4.621 12.6867C4.61414 12.6916 4.60629 12.6945 4.60041 12.7004C4.21796 13.0338 3.8561 13.3535 3.84335 13.9429C3.83354 14.3851 3.861 14.8215 3.89336 15.2589C3.91886 15.607 3.912 15.9699 4.05811 16.2925C4.28955 16.8044 4.35427 17.3408 4.34446 17.891C4.32387 18.9981 4.04242 20.068 3.86394 21.1516C3.68645 22.2264 3.8816 22.9295 4.72986 23.5013C4.84361 23.5778 4.86911 23.6523 4.85244 23.7827C4.78379 24.326 4.8593 24.8457 5.20057 25.2909C5.43887 25.6018 5.71149 25.8862 6.03412 26.1127C6.50777 26.4452 6.99418 26.758 7.46293 27.0953C8.19351 27.6229 8.81622 28.2702 9.40167 28.9478C9.8106 29.4214 10.2127 29.9039 10.5333 30.4482C10.7775 30.864 11.1472 31.1278 11.615 31.269C11.9533 31.371 12.2936 31.3455 12.6339 31.3425C12.7947 31.3406 12.9134 31.3612 12.9801 31.5367C13.0389 31.6907 13.1732 31.8025 13.3105 31.8888C14.1706 32.4262 15.0992 32.3928 16.0211 32.1359C16.4927 32.0045 16.9536 31.8172 17.444 31.8044C18.8286 31.7672 20.2133 31.7377 21.5764 32.0761C21.9304 32.1643 22.3021 32.2084 22.6679 32.1869C23.3583 32.1467 24.0163 32.0319 24.2389 31.219C24.2713 31.1023 24.3575 31.1366 24.438 31.1543C24.6517 31.2033 24.8636 31.266 25.0793 31.2945C25.4627 31.3435 25.7981 31.1866 26.1198 31.0022C26.6013 30.7267 27.0337 30.4031 27.2269 29.848C27.2662 29.7353 27.3368 29.6303 27.4054 29.5303C27.6398 29.1871 27.9261 28.8831 28.1782 28.5555C28.8509 27.6808 29.5923 26.9061 30.5915 26.3893C31.1672 26.0912 31.7222 25.7401 32.192 25.2762C32.6431 24.831 32.799 24.3054 32.5587 23.716C32.4577 23.4699 32.5185 23.3767 32.7186 23.259C33.4835 22.8099 33.7473 22.0931 33.7178 21.2507C33.7051 20.8947 33.6286 20.5397 33.5688 20.1867C33.4648 19.5689 33.302 18.956 33.2511 18.3332C33.1589 17.2104 33.356 16.1081 33.611 15.0177C33.6796 14.7215 33.7267 14.4263 33.7316 14.1204L33.7345 14.1223Z" fill="#FFFDEB"/>
<path d="M33.7334 14.1223C33.7285 14.4283 33.6815 14.7235 33.6128 15.0196C33.3588 16.1101 33.1607 17.2133 33.2529 18.3352C33.3039 18.9569 33.4657 19.5698 33.5707 20.1886C33.6305 20.5417 33.707 20.8967 33.7197 21.2526C33.7491 22.094 33.4853 22.8109 32.7204 23.261C32.5204 23.3787 32.4596 23.4718 32.5606 23.718C32.8008 24.3074 32.6449 24.833 32.1938 25.2782C31.7241 25.7421 31.1681 26.0931 30.5934 26.3912C29.5941 26.909 28.8528 27.6828 28.18 28.5575C27.928 28.885 27.6417 29.189 27.4073 29.5323C27.3386 29.6323 27.268 29.7372 27.2288 29.85C27.0356 30.406 26.6031 30.7287 26.1216 31.0042C25.8 31.1886 25.4646 31.3455 25.0812 31.2964C24.8645 31.269 24.6526 31.2052 24.4398 31.1562C24.3594 31.1376 24.2721 31.1033 24.2408 31.2209C24.0191 32.0329 23.3611 32.1486 22.6698 32.1888C22.303 32.2104 21.9323 32.1663 21.5783 32.078C20.2162 31.7387 18.8305 31.7681 17.4458 31.8064C16.9565 31.8201 16.4946 32.0064 16.0229 32.1378C15.1011 32.3958 14.1724 32.4281 13.3124 31.8907C13.1751 31.8054 13.0408 31.6926 12.9819 31.5387C12.9143 31.3631 12.7966 31.3425 12.6358 31.3445C12.2945 31.3484 11.9542 31.3729 11.6169 31.271C11.1491 31.1307 10.7794 30.8659 10.5352 30.4501C10.2145 29.9049 9.81247 29.4224 9.40354 28.9498C8.81809 28.2721 8.19538 27.6239 7.46479 27.0973C6.99604 26.759 6.50866 26.4462 6.03599 26.1147C5.71336 25.8882 5.44074 25.6038 5.20244 25.2929C4.86117 24.8477 4.78566 24.328 4.85431 23.7847C4.87098 23.6543 4.84646 23.5797 4.73173 23.5032C3.88346 22.9315 3.6893 22.2284 3.86581 21.1536C4.04429 20.07 4.32574 18.9991 4.34633 17.8929C4.35614 17.3428 4.29141 16.8074 4.05998 16.2945C3.91386 15.9709 3.92073 15.609 3.89523 15.2609C3.86385 14.8235 3.83639 14.3881 3.84522 13.9448C3.85797 13.3545 4.21983 13.0358 4.60228 12.7024C4.60816 12.6975 4.61601 12.6935 4.62287 12.6886C5.0877 12.3621 5.10143 12.4699 4.92786 11.8482C4.77095 11.2883 4.99062 10.7803 5.4731 10.389C6.12719 9.85848 6.85189 9.43484 7.55305 8.97589C8.12771 8.59933 8.60725 8.13744 9.01814 7.5922C9.4104 7.07147 9.79286 6.54094 10.2116 6.04277C10.6146 5.56324 11.053 5.11116 11.612 4.80225C12.0611 4.55415 12.5377 4.49727 13.03 4.62181C13.1732 4.6581 13.2693 4.64633 13.332 4.51296C13.637 3.8726 14.2323 3.76374 14.8422 3.69902C15.2708 3.65391 15.6817 3.75002 16.0896 3.88731C16.4201 3.99812 16.7604 4.08736 17.1183 4.06677C17.44 4.04813 17.7391 4.17268 18.0519 4.2168C18.7913 4.31977 19.5101 4.13835 20.2348 4.04421C21.0105 3.94418 21.7784 3.7912 22.5501 3.6647C23.1444 3.56761 23.6739 3.76473 24.1721 4.07167C24.3388 4.17366 24.4467 4.3286 24.5281 4.49825C24.6036 4.65417 24.7066 4.68261 24.8654 4.64044C25.8608 4.37175 26.4992 4.78656 27.0729 5.54362C27.5259 6.14084 27.9349 6.77336 28.4173 7.34508C28.8645 7.87463 29.4608 8.25021 29.9952 8.68955C30.6356 9.21615 31.3524 9.64372 31.9251 10.2615C32.4125 10.7881 32.7087 11.3736 32.693 12.0973C32.69 12.2562 32.7371 12.3503 32.8881 12.418C33.6334 12.7553 33.6844 13.4418 33.7364 14.1243L33.7334 14.1223ZM7.00879 21.8067C8.21009 21.8705 9.33587 21.5547 10.4342 21.1163C11.2678 20.7839 12.0846 20.423 12.8015 19.8611C13.2604 19.5012 13.2291 19.1825 12.8368 18.7608C12.6966 18.6098 12.521 18.5029 12.3524 18.3901C12.2151 18.2979 12.2258 18.2166 12.3602 18.1332C12.4847 18.0557 12.6152 17.9851 12.7289 17.8939C13.4213 17.3457 13.2938 16.7122 12.6789 16.2278C12.4318 16.0336 12.1386 15.8944 11.8473 15.7649C10.494 15.1628 9.07796 14.7519 7.64621 14.3959C7.08823 14.2567 6.5116 14.1616 5.93106 14.3165C5.64275 14.393 5.46819 14.5607 5.40347 14.8598C5.27893 15.4364 5.43289 15.962 5.69963 16.4573C5.9899 16.9986 6.38216 17.4703 6.80482 17.9145C6.89798 18.0126 6.9882 18.1008 6.8617 18.246C6.60477 18.5421 6.33313 18.8206 6.0458 19.0874C5.61039 19.4924 5.26324 19.9641 5.13379 20.5613C5.08182 20.8015 5.10633 21.0418 5.28187 21.2271C5.61627 21.5802 5.99774 21.844 6.51945 21.8077C6.68224 21.7969 6.84601 21.8057 7.00879 21.8057V21.8067ZM14.5255 22.7991C14.4362 22.7991 14.3421 22.7815 14.2578 22.803C14.0714 22.8501 14.045 22.7481 14.0597 22.6089C14.0734 22.4804 14.1038 22.3529 14.1254 22.2245C14.196 21.7949 14.0969 21.4439 13.7076 21.1889C13.3899 20.981 13.0574 21.0143 12.7172 21.0595C12.219 21.1261 11.7649 21.3399 11.3031 21.5204C10.1714 21.9626 9.0662 22.4637 8.012 23.0717C7.50108 23.3659 7.00683 23.6797 6.66262 24.1769C6.49199 24.4231 6.47434 24.7045 6.66851 24.9232C6.95388 25.2458 7.25984 25.5528 7.66975 25.7264C8.34444 26.0108 9.0407 26.1853 9.77815 26.1765C10.0743 26.1726 10.1155 26.2226 10.1184 26.5197C10.1214 26.8208 10.1253 27.1218 10.0733 27.4219C9.97722 27.9848 10.0586 28.5242 10.3165 29.037C10.6411 29.6843 11.5914 29.8794 12.1425 29.4018C12.777 28.8517 13.3928 28.2819 13.8675 27.5798C14.1499 27.162 14.4411 26.7521 14.6304 26.2765C14.8491 25.7254 15.1099 25.1919 15.3276 24.6408C15.4777 24.2632 15.6022 23.872 15.6042 23.4571C15.6052 23.1267 15.5061 22.9864 15.2021 22.8599C14.9825 22.7677 14.754 22.7932 14.5264 22.8001L14.5255 22.7991ZM30.8042 22.0019C30.8856 22.0019 30.967 22.0048 31.0484 22.0019C31.8222 21.9734 32.1183 21.5625 32.0428 20.8172C32.0124 20.5142 31.9065 20.2112 31.7643 19.9386C31.4466 19.3266 31.0347 18.7834 30.4934 18.347C30.3806 18.2568 30.3355 18.1724 30.4512 18.0459C30.665 17.8125 30.8464 17.5428 31.0837 17.3369C31.5074 16.9692 31.8065 16.5308 32.0153 16.015C32.2468 15.4443 32.2164 15.2619 31.7565 14.8735C31.3858 14.5607 30.9817 14.3871 30.4747 14.4832C30.157 14.543 29.8265 14.546 29.5019 14.5479C29.0077 14.5509 28.5311 14.6323 28.0614 14.7823C27.1425 15.0765 26.2707 15.4805 25.4175 15.9248C25.0508 16.116 24.6928 16.3337 24.3957 16.6308C24.0593 16.9672 24.0564 17.2575 24.3771 17.6105C24.5448 17.7949 24.7664 17.9047 24.9664 18.044C25.1086 18.143 25.139 18.2107 24.9704 18.2989C24.7723 18.4019 24.6095 18.551 24.4536 18.7059C24.1741 18.9834 24.0289 19.3492 24.3074 19.7826C24.5967 20.2328 25.0527 20.424 25.5068 20.624C26.5698 21.0918 27.6868 21.3939 28.8086 21.6753C29.4637 21.8391 30.1227 21.993 30.8033 22.0038L30.8042 22.0019ZM22.4511 6.46837C22.4511 6.36246 22.4589 6.25557 22.4501 6.15064C22.4109 5.69857 22.2334 5.36613 21.743 5.25335C21.3645 5.16607 21.0174 5.23766 20.6702 5.37201C19.9024 5.66816 19.2767 6.17418 18.6844 6.72432C18.5461 6.85279 18.45 6.85867 18.3118 6.74394C18.0558 6.53016 17.793 6.32618 17.5527 6.09181C17.2095 5.7574 16.8212 5.49067 16.3848 5.26806C15.5453 4.83952 15.0236 5.36613 14.7628 6.12417C14.5402 6.77238 14.7098 7.48825 14.8246 8.15705C14.9991 9.17301 15.3669 10.1321 15.8592 11.0431C16.2014 11.6766 16.5417 12.3062 17.0722 12.8063C17.2997 13.0211 17.4782 13.0348 17.7293 12.8583C17.9087 12.7318 18.0774 12.5876 18.2137 12.4131C18.4353 12.1293 18.6592 12.1372 18.8854 12.4366C19.2434 12.9093 19.6807 13.0309 20.1681 12.7828C20.4231 12.6533 20.6035 12.4415 20.7359 12.1924C21.1811 11.354 21.5185 10.4733 21.7538 9.5535C21.8686 9.10436 21.9745 8.65032 22.1186 8.21001C22.304 7.64221 22.4148 7.06265 22.4511 6.46936V6.46837ZM27.4181 8.87979C27.4249 8.5042 27.4161 8.13058 27.3612 7.75793C27.3073 7.39117 27.1856 7.04696 26.9866 6.73707C26.6649 6.23596 25.9363 6.2899 25.3891 6.58998C24.9213 6.84691 24.6379 7.32938 24.2623 7.70203C23.9495 8.0129 23.6857 8.36789 23.4631 8.74936C23.0934 9.38286 22.7355 10.0232 22.505 10.7244C22.3089 11.3187 22.0706 11.9012 22.001 12.5327C21.9568 12.9348 22.0441 13.0946 22.4217 13.2427C22.7227 13.3614 23.0277 13.3496 23.3366 13.2947C23.5337 13.2594 23.6171 13.3133 23.5602 13.5281C23.5141 13.7007 23.4906 13.8791 23.4915 14.0606C23.4955 14.6362 23.8426 14.9843 24.4153 15.0088C24.8164 15.0265 25.1891 14.9226 25.5627 14.801C26.4727 14.5058 27.3327 14.091 28.1732 13.6448C28.9832 13.2152 29.8334 12.8406 30.513 12.1963C31.0729 11.6658 31.2652 11.1941 30.511 10.5773C29.9079 10.084 29.1705 9.93497 28.4281 9.81925C28.1967 9.78297 27.9555 9.7918 27.7201 9.80258C27.5044 9.81239 27.4004 9.74865 27.4171 9.51525C27.4318 9.30441 27.42 9.09161 27.42 8.87979H27.4181ZM27.827 26.1176C28.0025 26.1176 28.1241 26.1216 28.2467 26.1176C28.788 26.1 29.3146 26.0264 29.804 25.7666C30.1531 25.5812 30.3267 25.3155 30.3031 24.9222C30.2884 24.6849 30.2315 24.4554 30.1453 24.2338C30.0168 23.9043 29.7236 23.7258 29.4774 23.5032C28.7547 22.8491 27.9819 22.2774 27.0719 21.8959C26.4629 21.64 25.8451 21.4086 25.2214 21.1948C24.7811 21.0438 24.3222 20.9584 23.8563 20.9379C23.4151 20.9182 23.1748 21.1595 23.1503 21.5968C23.1366 21.844 23.165 22.0862 23.2072 22.3265C23.2434 22.5304 23.1513 22.553 22.9934 22.5245C22.8571 22.5 22.7217 22.4647 22.5844 22.449C22.0059 22.3794 21.5165 22.6883 21.4538 23.1757C21.4126 23.4924 21.4351 23.8112 21.5469 24.1161C21.847 24.9369 22.2187 25.7273 22.6462 26.4854C23.1895 27.4494 23.724 28.4212 24.4732 29.2547C24.9792 29.8176 25.5352 29.8637 26.0667 29.3401C26.2727 29.1371 26.3707 28.8791 26.4678 28.6242C26.7404 27.9112 26.9091 27.1758 26.8797 26.406C26.8738 26.2432 26.9385 26.1716 27.0984 26.149C27.3582 26.1118 27.6191 26.1265 27.827 26.1186V26.1176ZM13.8557 14.3371C13.8469 14.2332 13.8439 14.1184 13.8263 14.0066C13.7998 13.8458 13.8714 13.8203 14.0067 13.8546C14.1567 13.8929 14.3068 13.935 14.4588 13.9576C14.9285 14.0272 15.3551 13.8272 15.5189 13.4359C15.6483 13.128 15.6542 12.8004 15.5512 12.4778C15.1884 11.3432 14.7393 10.2449 14.1695 9.19654C13.7223 8.3728 13.2732 7.55297 12.5956 6.88319C12.2386 6.53016 11.8483 6.48112 11.4384 6.76747C11.0442 7.04304 10.8167 7.43628 10.6627 7.86776C10.4509 8.45909 10.2793 9.06317 10.2783 9.70158C10.2783 9.83789 10.2734 9.99185 10.0782 10.0105C9.76246 10.0409 9.44571 10.085 9.12798 10.0458C8.58175 9.97812 8.05122 10.0595 7.54521 10.2507C7.20983 10.3772 6.87837 10.5606 6.81168 10.9676C6.7401 11.401 6.85777 11.809 7.14608 12.1287C7.58836 12.618 8.05515 13.0868 8.57881 13.4928C9.27409 14.0331 10.0596 14.4146 10.8696 14.7392C11.4884 14.9863 12.1111 15.2324 12.7721 15.3599C13.331 15.4678 13.5997 15.3638 13.8047 14.9284C13.892 14.7421 13.8341 14.5421 13.8576 14.3391L13.8557 14.3371ZM14.7746 30.0304C14.7706 30.3952 14.7834 30.764 15.0844 31.0219C15.5081 31.3847 16.0112 31.3033 16.4505 31.114C17.1977 30.7914 17.8979 30.3619 18.4814 29.7843C18.6913 29.5764 18.8168 29.6401 18.9904 29.7735C19.3022 30.0128 19.568 30.3001 19.8435 30.5786C20.2211 30.9611 20.683 31.1896 21.1949 31.3259C21.4086 31.3827 21.6254 31.3631 21.8019 31.2249C22.1029 30.9905 22.3354 30.7012 22.4305 30.3197C22.5217 29.9549 22.4432 29.5901 22.4285 29.2253C22.3981 28.4908 22.3246 27.7612 22.0873 27.063C21.8509 26.3677 21.5302 25.7058 21.1851 25.0585C20.9252 24.5692 20.6428 24.0906 20.2319 23.7062C20.0083 23.4973 19.8426 23.4679 19.567 23.6052C19.3826 23.6974 19.2228 23.821 19.111 24.0004C19.0335 24.125 18.9413 24.2397 18.8619 24.3633C18.7825 24.4868 18.7109 24.5015 18.6285 24.3672C18.552 24.2417 18.4824 24.1103 18.3912 23.9975C18.1166 23.6582 17.6567 23.3542 17.1801 23.6003C16.9192 23.7347 16.7123 23.9279 16.5642 24.1789C16.3612 24.5231 16.1916 24.884 16.0376 25.2537C15.6856 26.098 15.413 26.9688 15.1805 27.8524C14.9923 28.5683 14.7883 29.2842 14.7746 30.0334V30.0304ZM13.7498 18.2244C13.7204 18.5765 13.8243 19.0021 13.9459 19.4286C14.2538 20.5093 14.8863 21.3468 15.8042 21.9813C16.7702 22.6491 17.8332 22.907 18.9992 22.7923C20.4731 22.6471 21.6705 21.9862 22.504 20.777C23.1709 19.8101 23.4543 18.7226 23.2719 17.5124C23.114 16.4622 22.6786 15.5717 21.9343 14.8559C20.7212 13.6899 19.2512 13.2594 17.591 13.5604C16.3485 13.786 15.3718 14.446 14.6216 15.4619C14.0332 16.2582 13.7429 17.1418 13.7488 18.2234L13.7498 18.2244Z" fill="#292122"/>
<path d="M7.00886 21.8067C6.84607 21.8067 6.6823 21.7969 6.51951 21.8087C5.99781 21.845 5.61536 21.5812 5.28193 21.2281C5.1064 21.0428 5.08188 20.8035 5.13386 20.5623C5.2633 19.9651 5.61045 19.4924 6.04586 19.0884C6.33319 18.8216 6.60483 18.5421 6.86176 18.247C6.98728 18.1018 6.89804 18.0136 6.80488 17.9155C6.38222 17.4713 5.98996 16.9996 5.69969 16.4583C5.43394 15.963 5.27899 15.4374 5.40353 14.8608C5.46826 14.5627 5.64183 14.395 5.93112 14.3175C6.51265 14.1626 7.08927 14.2577 7.64628 14.3969C9.07803 14.7539 10.4941 15.1638 11.8474 15.7659C12.1386 15.8954 12.4318 16.0346 12.679 16.2288C13.2938 16.7122 13.4213 17.3467 12.729 17.8949C12.6142 17.9851 12.4848 18.0567 12.3603 18.1342C12.2259 18.2175 12.2151 18.2989 12.3524 18.3911C12.5221 18.5049 12.6966 18.6108 12.8369 18.7618C13.2291 19.1835 13.2605 19.5032 12.8016 19.8621C12.0847 20.424 11.2678 20.7839 10.4343 21.1173C9.33594 21.5557 8.21015 21.8714 7.00886 21.8077V21.8067Z" fill="#FFFDEB"/>
<path d="M14.5255 22.7991C14.7531 22.7932 14.9815 22.7677 15.2012 22.8589C15.5052 22.9854 15.6043 23.1267 15.6033 23.4561C15.6013 23.871 15.4768 24.2622 15.3267 24.6398C15.108 25.1909 14.8482 25.7244 14.6295 26.2755C14.4402 26.7511 14.149 27.161 13.8665 27.5788C13.3919 28.2809 12.7761 28.8507 12.1416 29.4008C11.5914 29.8784 10.6402 29.6833 10.3156 29.036C10.0587 28.5232 9.97631 27.9838 10.0724 27.4209C10.1234 27.1208 10.1195 26.8198 10.1175 26.5187C10.1146 26.2216 10.0734 26.1716 9.77724 26.1755C9.03979 26.1853 8.34353 26.0098 7.66885 25.7254C7.25893 25.5528 6.95297 25.2458 6.6676 24.9222C6.47442 24.7035 6.49109 24.4221 6.66172 24.1759C7.00691 23.6788 7.50115 23.3659 8.01109 23.0708C9.06529 22.4628 10.1705 21.9616 11.3022 21.5194C11.7631 21.3389 12.2171 21.1261 12.7162 21.0585C13.0565 21.0124 13.389 20.98 13.7067 21.1879C14.096 21.4429 14.1951 21.7939 14.1245 22.2235C14.1029 22.3519 14.0725 22.4784 14.0588 22.6079C14.044 22.7471 14.0695 22.8491 14.2568 22.8021C14.3412 22.7805 14.4353 22.7981 14.5246 22.7981L14.5255 22.7991Z" fill="#FFFDEB"/>
<path d="M30.8043 22.0019C30.1228 21.9921 29.4638 21.8371 28.8097 21.6734C27.6878 21.3929 26.5709 21.0899 25.5078 20.6221C25.0548 20.423 24.5978 20.2308 24.3085 19.7807C24.03 19.3473 24.1751 18.9825 24.4546 18.704C24.6105 18.549 24.7743 18.4009 24.9714 18.297C25.1401 18.2087 25.1097 18.1411 24.9675 18.042C24.7684 17.9028 24.5468 17.7929 24.3781 17.6086C24.0575 17.2565 24.0604 16.9653 24.3968 16.6289C24.6939 16.3318 25.0518 16.1141 25.4186 15.9228C26.2718 15.4786 27.1436 15.0756 28.0624 14.7804C28.5322 14.6303 29.0088 14.5489 29.503 14.546C29.8276 14.544 30.1591 14.5421 30.4758 14.4813C30.9828 14.3852 31.3868 14.5588 31.7575 14.8716C32.2174 15.2599 32.2478 15.4423 32.0164 16.0131C31.8075 16.5289 31.5084 16.9682 31.0848 17.335C30.8475 17.5409 30.6661 17.8106 30.4523 18.044C30.3366 18.1705 30.3817 18.2548 30.4944 18.345C31.0358 18.7804 31.4476 19.3247 31.7654 19.9366C31.9076 20.2093 32.0135 20.5123 32.0439 20.8153C32.1184 21.5606 31.8232 21.9715 31.0495 21.9999C30.9681 22.0029 30.8867 21.9999 30.8053 21.9999L30.8043 22.0019Z" fill="#FFFDEB"/>
<path d="M22.4513 6.46837C22.415 7.06264 22.3042 7.64122 22.1189 8.20902C21.9747 8.64933 21.8688 9.10239 21.7541 9.55251C21.5187 10.4724 21.1814 11.353 20.7362 12.1914C20.6038 12.4405 20.4233 12.6523 20.1684 12.7818C19.681 13.0299 19.2436 12.9083 18.8857 12.4356C18.6588 12.1355 18.4349 12.1277 18.2139 12.4121C18.0776 12.5866 17.9089 12.7308 17.7295 12.8573C17.4784 13.0338 17.3009 13.0211 17.0725 12.8053C16.5419 12.3052 16.2016 11.6756 15.8594 11.0421C15.3671 10.1301 14.9994 9.17104 14.8248 8.15607C14.7101 7.48726 14.5394 6.77139 14.763 6.12318C15.0239 5.36514 15.5446 4.83853 16.385 5.26707C16.8204 5.48968 17.2097 5.75642 17.553 6.09082C17.7932 6.32519 18.056 6.52917 18.312 6.74295C18.4493 6.85769 18.5454 6.8518 18.6846 6.72334C19.2779 6.17319 19.9036 5.66718 20.6705 5.37102C21.0176 5.23765 21.3638 5.16509 21.7433 5.25236C22.2336 5.36514 22.4111 5.69758 22.4503 6.14966C22.4592 6.25459 22.4513 6.36148 22.4513 6.46739V6.46837Z" fill="#FFFDEB"/>
<path d="M27.4182 8.8798C27.4182 9.09162 27.43 9.30442 27.4153 9.51526C27.3986 9.74865 27.5036 9.81239 27.7183 9.80259C27.9537 9.7918 28.1949 9.78297 28.4263 9.81926C29.1687 9.93498 29.9061 10.084 30.5092 10.5773C31.2634 11.1941 31.0712 11.6658 30.5112 12.1964C29.8316 12.8406 28.9814 13.2143 28.1714 13.6448C27.331 14.091 26.4709 14.5058 25.5609 14.801C25.1882 14.9216 24.8156 15.0255 24.4135 15.0089C23.8408 14.9843 23.4937 14.6362 23.4898 14.0606C23.4888 13.8791 23.5123 13.7016 23.5584 13.5281C23.6153 13.3143 23.5319 13.2604 23.3348 13.2947C23.0269 13.3496 22.7209 13.3614 22.4199 13.2427C22.0433 13.0946 21.955 12.9338 21.9992 12.5327C22.0688 11.9012 22.3071 11.3187 22.5032 10.7244C22.7337 10.0242 23.0916 9.38287 23.4613 8.74937C23.6839 8.3679 23.9477 8.01388 24.2605 7.70204C24.6352 7.32939 24.9186 6.84691 25.3873 6.58998C25.9345 6.2899 26.6641 6.23597 26.9848 6.73708C27.1839 7.04696 27.3055 7.39117 27.3594 7.75793C27.4143 8.13058 27.4231 8.50421 27.4163 8.8798H27.4182Z" fill="#FFFDEB"/>
<path d="M27.827 26.1177C27.6191 26.1255 27.3582 26.1108 27.0984 26.1481C26.9385 26.1706 26.8738 26.2432 26.8797 26.405C26.9091 27.1748 26.7394 27.9103 26.4678 28.6232C26.3707 28.8782 26.2727 29.1361 26.0667 29.3391C25.5352 29.8628 24.9792 29.8167 24.4732 29.2538C23.7239 28.4202 23.1895 27.4484 22.6462 26.4844C22.2187 25.7264 21.847 24.936 21.5469 24.1152C21.4351 23.8092 21.4126 23.4915 21.4537 23.1747C21.5165 22.6874 22.0059 22.3785 22.5844 22.4481C22.7217 22.4648 22.8571 22.4991 22.9934 22.5236C23.1512 22.552 23.2444 22.5295 23.2071 22.3255C23.164 22.0862 23.1365 21.843 23.1503 21.5959C23.1748 21.1585 23.415 20.9173 23.8563 20.9369C24.3221 20.9575 24.7811 21.0428 25.2214 21.1938C25.8451 21.4076 26.4619 21.639 27.0719 21.895C27.9819 22.2765 28.7547 22.8482 29.4774 23.5023C29.7226 23.7249 30.0168 23.9034 30.1452 24.2329C30.2315 24.4545 30.2894 24.684 30.3031 24.9213C30.3276 25.3135 30.1531 25.5793 29.804 25.7656C29.3146 26.0255 28.788 26.099 28.2467 26.1167C28.1241 26.1206 28.0025 26.1167 27.827 26.1167V26.1177Z" fill="#FFFDEB"/>
<path d="M13.8547 14.3371C13.8322 14.5401 13.89 14.7401 13.8018 14.9265C13.5968 15.3619 13.3281 15.4658 12.7692 15.3579C12.1082 15.2305 11.4855 14.9843 10.8667 14.7372C10.0567 14.4136 9.27118 14.0311 8.5759 13.4908C8.05321 13.0848 7.58544 12.6161 7.14317 12.1267C6.85486 11.807 6.73718 11.3991 6.80877 10.9656C6.87545 10.5587 7.20593 10.3763 7.54229 10.2488C8.04831 10.0575 8.57884 9.97615 9.12506 10.0438C9.44279 10.083 9.75954 10.0379 10.0753 10.0085C10.2705 9.98988 10.2754 9.83591 10.2754 9.6996C10.2773 9.0612 10.4489 8.45712 10.6598 7.86579C10.8147 7.43332 11.0412 7.04008 11.4355 6.7655C11.8454 6.47915 12.2357 6.52819 12.5926 6.88122C13.2703 7.551 13.7194 8.37082 14.1666 9.19457C14.7363 10.2429 15.1845 11.3412 15.5483 12.4758C15.6513 12.7985 15.6454 13.126 15.5159 13.4339C15.3522 13.8252 14.9256 14.0252 14.4559 13.9556C14.3029 13.9331 14.1528 13.8909 14.0038 13.8527C13.8685 13.8183 13.7979 13.8438 13.8233 14.0047C13.842 14.1164 13.8439 14.2312 13.8528 14.3351L13.8547 14.3371Z" fill="#FFFDEB"/>
<path d="M14.7745 30.0304C14.7883 29.2812 14.9923 28.5653 15.1805 27.8495C15.413 26.9669 15.6856 26.0961 16.0376 25.2507C16.1916 24.881 16.3603 24.5202 16.5642 24.176C16.7123 23.9249 16.9192 23.7317 17.1801 23.5974C17.6567 23.3512 18.1176 23.6562 18.3912 23.9945C18.4824 24.1073 18.553 24.2387 18.6285 24.3642C18.7109 24.4986 18.7825 24.4839 18.8619 24.3603C18.9413 24.2368 19.0335 24.122 19.111 23.9975C19.2238 23.818 19.3826 23.6945 19.567 23.6023C19.8416 23.465 20.0083 23.4944 20.2319 23.7033C20.6428 24.0887 20.9252 24.5672 21.1851 25.0556C21.5293 25.7028 21.8509 26.3648 22.0873 27.06C22.3246 27.7583 22.3981 28.4879 22.4285 29.2224C22.4432 29.5872 22.5217 29.952 22.4305 30.3168C22.3354 30.6983 22.1029 30.9875 21.8019 31.2219C21.6244 31.3602 21.4086 31.3798 21.1949 31.3229C20.683 31.1866 20.2211 30.9581 19.8435 30.5757C19.5689 30.2972 19.3022 30.0098 18.9904 29.7706C18.8168 29.6372 18.6913 29.5734 18.4814 29.7813C17.8989 30.3589 17.1987 30.7885 16.4505 31.1111C16.0111 31.3004 15.5081 31.3818 15.0844 31.0189C14.7824 30.761 14.7706 30.3923 14.7745 30.0275V30.0304Z" fill="#FFFDEB"/>
<path d="M13.7498 18.2254C13.7439 17.1437 14.0342 16.2602 14.6226 15.4639C15.3728 14.4479 16.3495 13.7879 17.592 13.5624C19.2512 13.2604 20.7222 13.6909 21.9353 14.8578C22.6796 15.5737 23.115 16.4641 23.2729 17.5144C23.4553 18.7245 23.1719 19.8111 22.505 20.779C21.6715 21.9881 20.4741 22.6491 19.0002 22.7942C17.8352 22.909 16.7712 22.651 15.8052 21.9832C14.8873 21.3478 14.2548 20.5113 13.9469 19.4306C13.8253 19.004 13.7213 18.5794 13.7508 18.2264L13.7498 18.2254ZM21.8362 16.3396C21.8362 15.7522 21.6862 15.4786 21.2233 15.2619C20.8065 15.0667 20.3927 15.1099 20.0181 15.3727C19.8543 15.4874 19.8043 15.4766 19.7769 15.2766C19.7033 14.7362 19.2855 14.3832 18.7099 14.3606C18.1215 14.3371 17.6626 14.6617 17.5429 15.1854C17.4998 15.3756 17.4034 15.4122 17.2536 15.2952C16.7565 14.9039 16.1024 14.9402 15.6846 15.3825C15.3061 15.7836 15.2512 16.3739 15.562 16.8387C15.6768 17.0104 15.613 17.0672 15.4453 17.0937C15.3247 17.1133 15.2051 17.1349 15.1031 17.2133C14.7481 17.4879 14.5147 17.8272 14.5637 18.297C14.6167 18.8079 14.8756 19.159 15.3963 19.2825C15.564 19.3217 15.5699 19.4129 15.4581 19.5238C15.3502 19.6307 15.2649 19.7611 15.2413 19.9003C15.107 20.6996 15.6542 21.3635 16.4093 21.3664C16.7221 21.3674 16.9536 21.2262 17.1664 21.0242C17.2723 20.9241 17.3517 20.9153 17.3733 21.0869C17.4096 21.384 17.5851 21.5968 17.8008 21.7763C18.1529 22.0695 18.555 22.1078 18.9727 21.9479C19.365 21.7969 19.5788 21.4978 19.6347 21.083C19.6445 21.0075 19.6013 20.8967 19.7033 20.8702C19.7994 20.8447 19.8357 20.9565 19.8788 21.0163C20.2525 21.54 21.1174 21.4105 21.4763 21.0634C21.9323 20.6231 21.9843 20.0298 21.594 19.5287C21.4812 19.3845 21.4851 19.309 21.6744 19.256C21.9274 19.1864 22.1265 19.0423 22.255 18.804C22.5903 18.1803 22.3795 17.4879 21.7421 17.1692C21.6087 17.1025 21.5911 17.0427 21.6754 16.9299C21.8146 16.7436 21.849 16.5298 21.8362 16.3386V16.3396Z" fill="#FFFDEB"/>
<path d="M19.4925 20.2063C19.2287 19.917 18.9325 19.7493 18.5442 19.7473C18.2245 19.7454 17.9499 19.8346 17.7205 20.0513C17.6116 20.1543 17.5518 20.1975 17.5096 19.9994C17.4135 19.5502 17.1615 19.2325 16.6957 19.1217C16.5604 19.0893 16.5711 19.0373 16.6388 18.9363C16.9791 18.4323 16.984 17.9312 16.5996 17.4467C16.5162 17.3418 16.5456 17.3163 16.6604 17.2977C17.1948 17.2114 17.5243 16.9054 17.6273 16.37C17.6577 16.2141 17.7018 16.167 17.845 16.2847C18.3079 16.6661 18.8217 16.7122 19.3346 16.4151C19.466 16.3396 19.5209 16.3533 19.5494 16.5014C19.621 16.8799 19.8406 17.1506 20.1799 17.3222C20.3064 17.3859 20.3143 17.4546 20.2496 17.5732C19.9946 18.0361 19.9946 18.4901 20.3182 18.9265C20.3751 19.003 20.4202 19.0736 20.2858 19.1334C19.8347 19.3355 19.5631 19.6777 19.4935 20.2063H19.4925ZM18.405 19.3158C19.1669 19.3158 19.6298 18.8932 19.6268 18.1999C19.6249 17.5821 19.1091 17.0721 18.4814 17.0662C17.8254 17.0613 17.2919 17.5703 17.2958 18.2077C17.2998 18.8059 17.8205 19.409 18.404 19.3158H18.405Z" fill="#FFFDEB"/>
<path d="M21.8362 16.3386C21.849 16.5289 21.8137 16.7436 21.6754 16.93C21.592 17.0418 21.6087 17.1026 21.7421 17.1692C22.3795 17.487 22.5903 18.1803 22.255 18.804C22.1265 19.0423 21.9274 19.1864 21.6744 19.2561C21.4842 19.308 21.4812 19.3845 21.594 19.5287C21.9853 20.0298 21.9333 20.6231 21.4763 21.0634C21.1164 21.4106 20.2525 21.54 19.8788 21.0163C19.8357 20.9565 19.7994 20.8447 19.7033 20.8702C19.6013 20.8967 19.6454 21.0075 19.6347 21.083C19.5788 21.4988 19.365 21.7979 18.9727 21.9479C18.555 22.1088 18.1529 22.0695 17.8008 21.7763C17.5841 21.5969 17.4086 21.3831 17.3733 21.0869C17.3527 20.9153 17.2723 20.9241 17.1664 21.0242C16.9536 21.2262 16.7221 21.3674 16.4093 21.3664C15.6542 21.3635 15.107 20.6996 15.2414 19.9004C15.2649 19.7611 15.3492 19.6297 15.4581 19.5238C15.5699 19.4139 15.564 19.3227 15.3963 19.2825C14.8756 19.159 14.6167 18.8079 14.5637 18.297C14.5147 17.8282 14.7491 17.488 15.1031 17.2134C15.2051 17.1349 15.3247 17.1124 15.4453 17.0937C15.613 17.0673 15.6777 17.0104 15.562 16.8388C15.2502 16.3739 15.3061 15.7836 15.6846 15.3825C16.1024 14.9402 16.7555 14.9049 17.2536 15.2952C17.4027 15.4122 17.4991 15.3756 17.5429 15.1854C17.6616 14.6627 18.1215 14.3381 18.7099 14.3607C19.2846 14.3832 19.7033 14.7363 19.7769 15.2766C19.8043 15.4766 19.8543 15.4874 20.0181 15.3727C20.3927 15.1099 20.8065 15.0667 21.2233 15.2619C21.6862 15.4786 21.8352 15.7522 21.8362 16.3396V16.3386ZM19.4925 20.2063C19.5621 19.6777 19.8337 19.3365 20.2848 19.1335C20.4202 19.0727 20.3741 19.0031 20.3172 18.9266C19.9936 18.4902 19.9936 18.0361 20.2485 17.5733C20.3143 17.4546 20.3064 17.386 20.1789 17.3222C19.8386 17.1506 19.62 16.88 19.5484 16.5014C19.5199 16.3533 19.465 16.3396 19.3336 16.4151C18.8207 16.7123 18.3059 16.6662 17.844 16.2847C17.7008 16.166 17.6557 16.2131 17.6263 16.37C17.5233 16.9054 17.1948 17.2124 16.6594 17.2977C16.5437 17.3163 16.5152 17.3418 16.5986 17.4468C16.983 17.9312 16.9781 18.4333 16.6378 18.9364C16.5701 19.0374 16.5603 19.0894 16.6947 19.1217C17.1605 19.2325 17.4125 19.5503 17.5086 19.9994C17.5508 20.1985 17.6106 20.1543 17.7195 20.0514C17.9489 19.8346 18.2235 19.7454 18.5432 19.7474C18.9315 19.7493 19.2277 19.916 19.4915 20.2063H19.4925Z" fill="#C2B598"/>
<path d="M18.405 19.3159C17.8206 19.409 17.3008 18.8059 17.2969 18.2077C17.293 17.5703 17.8255 17.0614 18.4825 17.0663C19.1101 17.0712 19.6259 17.5821 19.6279 18.1999C19.6308 18.8922 19.168 19.3149 18.406 19.3159H18.405Z" fill="#292122"/>
</svg>
